<svg id="Layer_8" data-name="Layer 8" xmlns="http://www.w3.org/2000/svg" viewBox="0 0 85.68 75.54"><title>bag</title><rect x="622.8" y="527.51" width="74.76" height="19.3" rx="5.75" transform="translate(-483.08 -614.89) rotate(13.12)" fill="#ff0" stroke="#000" stroke-miterlimit="10"/><path d="M681.28,554l-7.23-1.92a47.59,47.59,0,0,0,5.42-20.42s5.26-.08,7.24,1.92A35.54,35.54,0,0,1,681.28,554Z" transform="translate(-622.24 -479.06)" fill="#ff0" stroke="#000" stroke-miterlimit="10"/><path d="M635.63,543.44l7.31,1.59a46.48,46.48,0,0,1,4.44-20.41s-4.64-2.45-7.32-1.59A34.77,34.77,0,0,0,635.63,543.44Z" transform="translate(-622.24 -479.06)" fill="#ff0" stroke="#000" stroke-miterlimit="10"/><rect x="629.56" y="494.34" width="73.51" height="34.27" rx="7.62" transform="translate(-468.55 -633.02) rotate(14.88)" fill="#ff0" stroke="#000" stroke-miterlimit="10"/><rect x="630.72" y="486.87" width="75.7" height="32.24" rx="8.36" transform="translate(-470.65 -633.88) rotate(14.88)" fill="#ff0" stroke="#000" stroke-miterlimit="10"/><polygon points="29.6 32.7 27.3 41.9 18.46 39.84 19.84 34.25 20.71 30.85 29.6 32.7" fill="#ff0"/><path d="M649.13,505.69a4.12,4.12,0,0,1,3,5l-.27,1.05L643,509.91l.37-1.42a4.1,4.1,0,0,1,5-3Z" transform="translate(-622.24 -479.06)" fill="#ff0"/><path d="M640.7,518.9l8.84,2.05-.16.68a4.1,4.1,0,0,1-5,3l-.8-.18a4.16,4.16,0,0,1-3-5l1.53-6.1Z" transform="translate(-622.24 -479.06)" fill="#ff0"/><path d="M643,509.91l.37-1.42a4.1,4.1,0,0,1,5-3l.79.18a4.12,4.12,0,0,1,3,5l-.27,1.05" transform="translate(-622.24 -479.06)" fill="none" stroke="#000" stroke-miterlimit="10"/><path d="M649.54,521l-.16.68a4.1,4.1,0,0,1-5,3l-.8-.18a4.16,4.16,0,0,1-3-5l1.53-6.1" transform="translate(-622.24 -479.06)" fill="none" stroke="#000" stroke-miterlimit="10"/><polygon points="19.84 34.25 18.46 39.84 27.3 41.9 29.6 32.7 20.71 30.85 19.84 34.25" fill="none" stroke="#000" stroke-miterlimit="10"/><polygon points="67.58 41.53 65.76 50.83 56.8 49.24 58.6 40.14 67.58 41.53" fill="#ff0"/><path d="M689.82,520.59l-9-1.39.29-1.43A4.13,4.13,0,0,1,686,514.5l.81.17a4.14,4.14,0,0,1,3.26,4.86Z" transform="translate(-622.24 -479.06)" fill="#ff0"/><path d="M679,528.3l9,1.59-.13.66a4.16,4.16,0,0,1-4.86,3.26l-.81-.16a4.12,4.12,0,0,1-3.26-4.83Z" transform="translate(-622.24 -479.06)" fill="#ff0"/><path d="M680.84,519.2l.29-1.43A4.13,4.13,0,0,1,686,514.5l.81.17a4.14,4.14,0,0,1,3.26,4.86l-.21,1.06" transform="translate(-622.24 -479.06)" fill="none" stroke="#000" stroke-miterlimit="10"/><path d="M688,529.89l-.13.66a4.16,4.16,0,0,1-4.86,3.26l-.81-.16a4.12,4.12,0,0,1-3.26-4.83l.09-.52" transform="translate(-622.24 -479.06)" fill="none" stroke="#000" stroke-miterlimit="10"/><polygon points="56.8 49.24 65.76 50.83 67.58 41.53 58.6 40.14 56.8 49.24" fill="none" stroke="#000" stroke-miterlimit="10"/></svg>