<svg id="Layer_4" data-name="Layer 4" xmlns="http://www.w3.org/2000/svg" viewBox="0 0 181.12 76"><title>cape</title><path d="M732,555.66c-.43,0-5.27.29-7.86-2.38h0c-.5-.09-5.57-1.16-7.14-5.28h0c-11.11-3.25-.9-16.18,3.66-23.87,5-8.24-1.25-8.53-2.56-8.5.73-.9,1.48-1.77,2.24-2.64l4.84-4.61c9-9,20.59-10.62,26.45-3.6a.09.09,0,0,1,0,.06c2.09,2.49,3.43,6.06,3.69,10.79.58,10.47-29,41.39-10,34.78C740.36,558.3,734.61,559.08,732,555.66Z" transform="translate(-574.66 -484.27)" fill="#00adee"/><path d="M667.06,537.82a44.85,44.85,0,0,1-7.72,7c-4.64,3.13-8.64,3.28-10.7-2.58,0,0,5.28-29.07-18.71-21.76,0,0-3.74-11.83-38.72-16.5l.67-5.4c6.18,0,16.12-10.18,16.12-10.18a15,15,0,0,1,13.61-.87,18.33,18.33,0,0,1,8.29-2.78c6.91,0,8.59,3.39,8.59,3.39l0,.12c28.89-5.6,35,41.8,35,41.8C671.44,532.74,669.26,535.41,667.06,537.82Z" transform="translate(-574.66 -484.27)" fill="#00adee"/><path d="M658.1,553.08c-5.72,1-10-1.34-9.46-10.82,2.06,5.86,6.06,5.71,10.7,2.58a44.85,44.85,0,0,0,7.72-7c2.2-2.41,4.38-5.08,6.44-7.74,3-3.86,5.63-7.69,7.71-10.74,8.53-12.5,21.79-31.35,34.58-25.55l.06.14c9.83-4.84,15.92,1.28,15.92,1.28v0c13.9-3.6,19.41,8.64,19.78,9.54-5.86-7-17.46-5.36-26.45,3.6L720.26,513c-.76.87-1.51,1.74-2.24,2.64-9.6,12-15.81,26.69-22.45,36.08-14.24,14.54-26.94,5-26.94,5v0A14.39,14.39,0,0,1,658.1,553.08Z" transform="translate(-574.66 -484.27)" fill="#00adee"/><path d="M591.88,498.6l-.67,5.4c-4.73-.64-10-1.13-16-1.45,1-7.17,11.95-9.54,11.95-9.54C587.67,497.12,589.5,498.6,591.88,498.6Z" transform="translate(-574.66 -484.27)" fill="#00adee"/><path d="M606.76,496.23c3.65.11,9-5.23,14.85-8.68a18.33,18.33,0,0,1,8.29-2.78c6.91,0,8.59,3.39,8.59,3.39" transform="translate(-574.66 -484.27)" fill="none" stroke="#000" stroke-linecap="round" stroke-miterlimit="10"/><path d="M620.77,496.89c6.7-5,12.59-7.63,17.75-8.61,28.89-5.6,35,41.8,35,41.8" transform="translate(-574.66 -484.27)" fill="none" stroke="#000" stroke-linecap="round" stroke-miterlimit="10"/><path d="M683.83,538.66s-15.32,12.68-25.73,14.42c-5.72,1-10-1.34-9.46-10.82,0,0,5.28-29.07-18.71-21.76,0,0-3.74-11.83-38.72-16.5-4.73-.64-10-1.13-16-1.45,1-7.17,11.95-9.54,11.95-9.54.49,4.11,2.32,5.59,4.7,5.59,6.18,0,16.12-10.18,16.12-10.18a15,15,0,0,1,13.61-.87" transform="translate(-574.66 -484.27)" fill="none" stroke="#000" stroke-linecap="round" stroke-miterlimit="10"/><path d="M682.72,550.41c-5.51,4.49-10.27,6.06-14.09,6.23a14.39,14.39,0,0,1-10.53-3.56" transform="translate(-574.66 -484.27)" fill="none" stroke="#000" stroke-linecap="round" stroke-miterlimit="10"/><path d="M720.26,513c-.76.87-1.51,1.74-2.24,2.64-9.6,12-15.81,26.69-22.45,36.08-14.24,14.54-26.94,5-26.94,5" transform="translate(-574.66 -484.27)" fill="none" stroke="#000" stroke-linecap="round" stroke-miterlimit="10"/><path d="M717.82,515.63h.2c1.31,0,7.54.26,2.56,8.5-4.56,7.69-14.77,20.62-3.66,23.87" transform="translate(-574.66 -484.27)" fill="none" stroke="#000" stroke-miterlimit="10"/><path d="M722.9,532.37c-6.39,7.6-7.2,12.5-5.95,15.63,1.57,4.12,6.64,5.19,7.14,5.28" transform="translate(-574.66 -484.27)" fill="none" stroke="#000" stroke-linecap="round" stroke-miterlimit="10"/><path d="M730.21,532.92c-9,12-8.71,17.66-6.12,20.36h0c2.59,2.67,7.43,2.41,7.86,2.38h0" transform="translate(-574.66 -484.27)" fill="none" stroke="#000" stroke-linecap="round" stroke-miterlimit="10"/><path d="M738.36,508.12c12.61-5.54,14.41,13,1.56,24.8-9.95,10.09-10.85,19-7.95,22.74,2.64,3.42,8.39,2.64,13.32-5.25l.29-.47" transform="translate(-574.66 -484.27)" fill="none" stroke="#000" stroke-linecap="round" stroke-miterlimit="10"/><path d="M751.58,504.84c2.09,2.49,3.43,6.06,3.69,10.79.58,10.47-29,41.39-10,34.78" transform="translate(-574.66 -484.27)" fill="none" stroke="#000" stroke-linecap="round" stroke-miterlimit="10"/><path d="M725.1,508.38c9-9,20.59-10.62,26.45-3.6" transform="translate(-574.66 -484.27)" fill="none" stroke="#000" stroke-linecap="round" stroke-miterlimit="10"/><path d="M715.79,493.79c-12.79-5.8-26,13-34.58,25.55-2.08,3-4.75,6.88-7.71,10.74-2.06,2.66-4.24,5.33-6.44,7.74a44.85,44.85,0,0,1-7.72,7c-4.64,3.13-8.64,3.28-10.7-2.58" transform="translate(-574.66 -484.27)" fill="none" stroke="#000" stroke-linecap="round" stroke-miterlimit="10"/><path d="M649.4,503.91c20.18,10.1,17.66,33.91,17.66,33.91" transform="translate(-574.66 -484.27)" fill="none" stroke="#000" stroke-linecap="round" stroke-miterlimit="10"/><path d="M650.27,514.24c11.22,8.79,9.07,30.6,9.07,30.6" transform="translate(-574.66 -484.27)" fill="none" stroke="#000" stroke-linecap="round" stroke-miterlimit="10"/><path d="M702.5,505.86c4.94-6.41,9.46-10,13.35-11.93,9.83-4.84,15.92,1.28,15.92,1.28" transform="translate(-574.66 -484.27)" fill="none" stroke="#000" stroke-linecap="round" stroke-miterlimit="10"/><path d="M721.39,500.11a33.62,33.62,0,0,1,10.38-4.87c13.9-3.6,19.41,8.64,19.78,9.54a.09.09,0,0,1,0,.06" transform="translate(-574.66 -484.27)" fill="none" stroke="#000" stroke-linecap="round" stroke-miterlimit="10"/></svg>