<svg id="Layer_6" data-name="Layer 6" xmlns="http://www.w3.org/2000/svg" viewBox="0 0 316.03 124.05"><title>flag</title><path d="M822.56,519.46l-13.28,13.6c-36.58-35.73-83.54-53.43-83.54-53.43l-2.67,8.76c-39.51-13.31-88.38-15.8-138.73,12.65L568.79,482c26.31-15.86,58.91-25.32,102.33-26.33C737.83,454.08,787.32,486.91,822.56,519.46Z" transform="translate(-507.24 -455.09)" fill="#fff"/><path d="M584.34,501c50.35-28.45,99.22-26,138.73-12.65,37.68,12.68,66.86,35.19,80.66,50.07l-12.87,13.72c-26.22-22.95-51.08-36.69-73.71-44.38C646.67,483.87,598.08,519,598.08,519l15.49,19.81A124,124,0,0,0,596,550l-16.31-17.89s-25.06,22.68-32,33L529,554c13.35-17.41,36.35-39,36.35-39l-16.16-19.11A163.46,163.46,0,0,1,568.79,482Z" transform="translate(-507.24 -455.09)" fill="red"/><path d="M715,515c44.46,18.36,70,43.25,70,43.25l-11.63,12.5c-22.63-21.06-62.83-44.78-99.81-46a121.61,121.61,0,0,0-60,14.07L598.08,519s48.59-35.1,119.07-11.17Z" transform="translate(-507.24 -455.09)" fill="#fff"/><path d="M547.67,565.09c7-10.33,32-33,32-33L596,550a103.6,103.6,0,0,0-26,28.49Z" transform="translate(-507.24 -455.09)" fill="#fff"/><path d="M549.18,495.85,565.34,515s-23,21.58-36.35,39l-21-12.59C520.35,524,533.63,508.58,549.18,495.85Z" transform="translate(-507.24 -455.09)" fill="#fff"/><path d="M529,554l-21-12.59c12.39-17.41,25.67-32.78,41.22-45.51" transform="translate(-507.24 -455.09)" fill="none" stroke="#000" stroke-miterlimit="10"/><path d="M547.67,565.09,570,578.46A103.6,103.6,0,0,1,596,550" transform="translate(-507.24 -455.09)" fill="none" stroke="#000" stroke-miterlimit="10"/><path d="M613.57,538.78a121.61,121.61,0,0,1,60-14.07c37,1.22,77.18,24.94,99.81,46L785,558.21S759.44,533.32,715,515l2.17-7.16" transform="translate(-507.24 -455.09)" fill="none" stroke="#000" stroke-miterlimit="10"/><path d="M723.07,488.39l2.67-8.76s47,17.7,83.54,53.43l13.28-13.6c-35.24-32.55-84.73-65.38-151.44-63.81-43.42,1-76,10.47-102.33,26.33" transform="translate(-507.24 -455.09)" fill="none" stroke="#000" stroke-miterlimit="10"/><path d="M723.07,488.39c-39.51-13.31-88.38-15.8-138.73,12.65L568.79,482a163.46,163.46,0,0,0-19.61,13.87L565.34,515s-23,21.58-36.35,39l18.68,11.14c7-10.33,32-33,32-33L596,550a124,124,0,0,1,17.57-11.19L598.08,519s48.59-35.1,119.07-11.17c22.63,7.69,47.49,21.43,73.71,44.38l12.87-13.72C789.93,523.58,760.75,501.07,723.07,488.39Z" transform="translate(-507.24 -455.09)" fill="none" stroke="#000" stroke-miterlimit="10"/></svg>