<svg id="Layer_10" data-name="Layer 10" xmlns="http://www.w3.org/2000/svg" viewBox="0 0 372.58 314.74"><title>horse</title><path d="M778.64,516.12l4.48,8.15h0s11,14.85,2.09,36.66c.28-.14-2.64,6.66,6.52,10.69,0,0,4.86,2.22,10.14,12.49,0,0,10.28,3.2,15.14,6.95,1.38,1.8.55,12.77,2.63,12.08,0,0,5.14,22.63,17.5,43.18,0,0,4.05,8.06-3.15,12.64a6.63,6.63,0,0,0,1.76,6.39c2.87,2.77-8.51,6-8.51,6s.85,12.69-2.3,20.37l-23.62,1.67,8.51-15.93s-4.35-4.44,5.09-7.87v-10s11.39-10.28.1-28.52c-4.82-13.42-8.06-15.64-8.06-15.64s-3.7-1-6.76-8.24c-5.74-3.7-10.55-2.48-10.55-2.48l6.11,3.78s7.78-1.39,5.28,13c0,0,6.76,20.74,11.94,29.07,3.24,4.16-4.63,7.59-4.63,7.59l-.18,2.31s7.68,11.39-5.74,11.39c2.68,6.39-2.13,7.59-2.13,7.59l-2.43,11.55-23.77,1.59,8.79-14.44s-1.11-5.46,5.19-6.48c-7-7.12,6.29-13.51,6.29-13.51s5.37-13.61-8.88-30.37c0,0-6-2.4-10.09-11.38,0,0-8.1-.83-11.72-5.69,0,0-38.88-4.59-46.93-34.86-3.89-10.69-20.41-6.52-20.41-6.52s-54.71,24-96-24.44c-12.08,6-23.19-1.67-23.19-1.67-13.47,4-29.85,0-29.85,0s.13,2.64-4.59,7.08l-2.64,24.86c6,9.58-1.52,10.69-1.52,10.69s-1.39,4.17,10.13,6.25l-1,23.05S536.1,610.91,534,602.86c-6.66-1.25-5.41-7.64-5.41-7.64s.69-4.58-4.86-5.69c-3.33-10.28,1.8-13.89,1.8-13.89l1.67-23.46S513.19,520,542.9,525c11.8-1.25-11.94-3.75-11.94-3.75-11.9-2.78-10-4-10-4s-.93,2.59-10.28,5.28l-1.2,20.27c7.5,11.67-1.39,13.42-1.39,13.42v1.67s4.35-1.2,5.09,5.28l7.32,5.55-6.58,23s-8.05-3.52-11.48-14.81c-2.5-4.82-5.74-5.93-5.74-5.93l-.37-8a5.74,5.74,0,0,0-4-2.87c-3-.74,4.54-37.21,4.54-37.21s-4.54-28.42,15.27-25.2c20.83,2.87,26.2,2.24,41.38.66,0,0,.56-13.88,7-17.68,6.94-10.09,7.22-26.84,7.22-26.84-1.11-20.46-8.24-2.59-8.24-2.59-6.39,6.29-10.09,6.2-10.09,6.2s-3.15,10.09-8.7,15.83c-.74,13.05-5.93,20.09-14.26,14.16,8.24-17.22-3.7-.09-3.7-.09s-9.26,6.48-9.91-17.59c2.32-9.54,1.3-44.06,1.3-44.06C513.23,420,504,415,504,415a18.12,18.12,0,0,0,11-8.42,10,10,0,0,1-5-2.69s7-1.94,7.87-4.25-4.44-9.17-4.44-9.17,11.11,4.26,15.83,4.35c-6.2-11.75-4.72-16.2-4.72-16.2,19.25.56,21.47,15.83,21.47,15.83,10.65-10.55,24.9-6.66,24.9-6.66-.83,3.24-4.25,4.63-4.25,4.63a18.65,18.65,0,0,0,15-3.24c.47,3-1.76,6.2-1.76,6.2a32.9,32.9,0,0,1,14.26,1.85c3,2.87,11.48-.09,11.48-.09.46,3.88-2.69,6.75-2.69,6.75S614,413.64,621,412a4.64,4.64,0,0,1-3.15,4.35s15,14.71,24.34,47.95C651.07,495.38,748,494.8,748,494.8c13.06,0,20.55,10.58,20.55,10.58s12.5.74,37.31-8c43.14,4.88,51.47,64.15,51.47,64.15a24.27,24.27,0,0,1-10-12.12c7.87,37.21,16.94,38.88,16.94,38.88s-15.55,10.83-24.71-22.13c.83,17.22,3.79,20.55,3.79,20.55S835,588,828.9,564.91c-.92,16,4.45,19.25,4.45,19.25S818,581.48,820.29,552c0,0-3.25,10.36-.75,20.27,0,0-17-9.44-9.43-32.59-5.37,9-3.52,15.19-3.52,15.19s-8.33-5.93-6.85-25.65C797.7,509.83,778.64,516.12,778.64,516.12Z" transform="translate(-491.68 -378.65)"/><path d="M554.27,490.57l4.81-8.8c36.32,25.68,99.07,38.3,99.07,38.3l-1.68,8.27C597.87,520.14,554.27,490.57,554.27,490.57Z" transform="translate(-491.68 -378.65)" fill="#ff0" stroke="#000" stroke-miterlimit="10"/><path d="M779,515.18s-6.72,5.3-25.07,10c-1.44-22.88-12.39-31.55-12.39-31.55l-11.62,1.65c10.51,6.11,13.18,22.94,13,32.35-14.54,2.75-34.21,4.83-60.37,4.68l-1.07,10.17s56.75,4.39,102.15-19.27Z" transform="translate(-491.68 -378.65)" fill="#ff0" stroke="#000" stroke-miterlimit="10"/><path d="M663.14,541.05c-1.5,23.18-17.14,31.4-17.14,31.4,4.38,3.91,11.77,3.22,11.77,3.22,20.2-10.54,16.78-34.62,16.78-34.62Z" transform="translate(-491.68 -378.65)" fill="#ff0" stroke="#000" stroke-miterlimit="10"/><path d="M553.68,396.54C541.78,415.38,528,460.16,528,460.16h5.92c6.94-23.2,26.89-63.33,26.89-63.33Z" transform="translate(-491.68 -378.65)" fill="#ff0" stroke="#000" stroke-miterlimit="10"/><path d="M515.3,418.19c13-4.34,26,.3,26,.3l-1.4,5.92c-13.89-3.78-24.56,0-24.56,0Z" transform="translate(-491.68 -378.65)" fill="#ff0" stroke="#000" stroke-miterlimit="10"/><circle cx="51.48" cy="45.76" r="6.22" fill="#ff0" stroke="#000" stroke-miterlimit="10"/><path d="M513.42,461.46c9.42-4.78,16-.73,16-.73V465c-10.88-.82-16,2.91-16,2.91Z" transform="translate(-491.68 -378.65)" fill="#ff0" stroke="#000" stroke-miterlimit="10"/><path d="M530.06,467c.49,8.35-1.63,12.8-1.63,12.8h2.18a22.54,22.54,0,0,0,1.93-13.08Z" transform="translate(-491.68 -378.65)" fill="#ff0" stroke="#000" stroke-miterlimit="10"/><path d="M534.19,461.56c70.73-7.42,107.64-21.34,107.64-21.34l1.6,5.46c-62.93,17.85-109.14,21-109.14,21Z" transform="translate(-491.68 -378.65)" fill="#ff0" stroke="#000" stroke-miterlimit="10"/><circle cx="38.87" cy="85.54" r="4.5" fill="#ff0" stroke="#000" stroke-miterlimit="10"/><path d="M533.1,427.89c-9.22-.73-9.22,10.27-9.22,10.27C535.69,435.41,533.1,427.89,533.1,427.89Z" transform="translate(-491.68 -378.65)" fill="#ff0"/><polygon points="114.53 188.08 143 135.22 150.15 137 122.33 191.16 114.53 188.08" fill="#ff0" stroke="#000" stroke-miterlimit="10"/><path d="M723.65,483.91c6.47-.43,9,9.58.75,7.2a.81.81,0,0,0-1,1c6.15,37.67-20.77,58.41-55.69,50.47-23.76-5.43-57.12-21.93-26.83-58.42s16.33-4.5,16.33-4.5-15,13.37-18.6,26.4,22.69,32.77,51.66,28.68c30.26-4.26,26.05-43.13,26.05-43.13C717.59,485.92,719.65,484.18,723.65,483.91Z" transform="translate(-491.68 -378.65)" fill="#ff0"/><path d="M716.34,491.57s4.21,38.87-26.05,43.13C661.32,538.79,635,519,638.63,506s18.6-26.4,18.6-26.4S704,497.14,716.34,491.57Z" transform="translate(-491.68 -378.65)" fill="red"/><path d="M716.34,491.57s4.21,38.87-26.05,43.13C661.32,538.79,635,519,638.63,506s18.6-26.4,18.6-26.4S704,497.14,716.34,491.57Z" transform="translate(-491.68 -378.65)" fill="none" stroke="#000" stroke-miterlimit="10"/><path d="M657.23,479.62s13.92-32-16.33,4.5,3.07,53,26.83,58.42c34.92,7.94,61.84-12.8,55.69-50.47a.81.81,0,0,1,1-1c8.24,2.38,5.72-7.63-.75-7.2-4,.27-6.06,2-7.31,7.66" transform="translate(-491.68 -378.65)" fill="none" stroke="#000" stroke-miterlimit="10"/><polygon points="112.24 196.8 94.54 214.3 119.89 225.57 119.89 191.16 112.24 196.8" fill="#ff0" stroke="#000" stroke-miterlimit="10"/><circle cx="117.15" cy="192.52" r="5.18" fill="#ff0" stroke="#000" stroke-miterlimit="10"/></svg>