<?xml version="1.0" encoding="utf-8"?>
<!-- Generator: Adobe Illustrator 24.0.1, SVG Export Plug-In . SVG Version: 6.00 Build 0)  -->
<svg version="1.1" xmlns="http://www.w3.org/2000/svg" xmlns:xlink="http://www.w3.org/1999/xlink" x="0px" y="0px"
	 viewBox="0 0 612 792" style="enable-background:new 0 0 612 792;" xml:space="preserve">
<style type="text/css">
	.st0{clip-path:url(#SVGID_2_);fill:#FF0019;}
	.st1{clip-path:url(#SVGID_2_);fill:#FFFFFF;stroke:#000000;stroke-width:2;stroke-miterlimit:10;}
	.st2{clip-path:url(#SVGID_2_);fill:#00ADEE;stroke:#000000;stroke-width:2;stroke-miterlimit:10;}
	.st3{fill:#FFFFFF;}
	.st4{fill:#FF0000;}
	.st5{fill:none;stroke:#000000;stroke-miterlimit:10;}
	.st6{fill:#FFFF00;stroke:#0E0E0E;stroke-miterlimit:10;}
	.st7{fill:#FFFF00;}
	.st8{fill:#FFFF00;stroke:#000000;stroke-miterlimit:10;}
	.st9{fill:#FAA75E;stroke:#000000;stroke-miterlimit:10;}
	.st10{fill:#00ADEE;}
	.st11{fill:none;stroke:#000000;stroke-linecap:round;stroke-miterlimit:10;}
	.st12{fill:#FCFC00;stroke:#0C0C0C;stroke-miterlimit:10;}
	.st13{fill:#00ADEE;stroke:#000000;stroke-miterlimit:10;}
	.st14{stroke:#000000;stroke-miterlimit:10;}
	.st15{fill:#F9A75E;}
	.st16{fill:#0F0F0F;}
	.st17{fill:none;stroke:#FFFF00;stroke-miterlimit:10;}
	.st18{fill:none;}
</style>
<g id="frame">
	<g>
		<defs>
			<circle id="SVGID_1_" cx="306" cy="361.84" r="261.61"/>
		</defs>
		<clipPath id="SVGID_2_">
			<use xlink:href="#SVGID_1_"  style="overflow:visible;"/>
		</clipPath>
		<rect x="19.62" y="53.9" class="st0" width="568.03" height="623.05"/>
		<polygon class="st1" points="-437.23,384.8 -437.23,340.35 -398.7,340.35 -398.7,384.8 -361.02,384.8 -361.02,340.35 
			-322.49,340.35 -322.49,384.8 -284.81,384.8 -284.81,340.35 -246.28,340.35 -246.28,384.8 -208.61,384.8 -208.61,340.35 
			-170.08,340.35 -170.08,384.8 -132.4,384.8 -132.4,340.35 -93.87,340.35 -93.87,384.8 -56.19,384.8 -56.19,340.35 -17.66,340.35 
			-17.66,384.8 20.01,384.8 20.01,340.35 58.54,340.35 58.54,384.8 96.22,384.8 96.22,340.35 134.75,340.35 134.75,384.8 
			172.42,384.8 172.42,340.35 210.96,340.35 210.96,384.8 248.63,384.8 248.63,340.35 287.16,340.35 287.16,384.8 324.84,384.8 
			324.84,340.35 363.37,340.35 363.37,384.8 401.04,384.8 401.04,340.35 439.58,340.35 439.58,384.8 477.25,384.8 477.25,340.35 
			515.78,340.35 515.78,384.8 553.46,384.8 553.46,340.35 591.99,340.35 591.99,384.8 629.66,384.8 629.66,340.35 668.19,340.35 
			668.19,384.8 705.87,384.8 705.87,340.35 744.4,340.35 744.4,384.8 782.08,384.8 782.08,340.35 820.61,340.35 820.61,384.8 
			858.28,384.8 858.28,340.35 896.81,340.35 896.81,384.8 934.49,384.8 934.49,340.35 973.02,340.35 973.02,384.8 1010.7,384.8 
			1010.7,340.35 1049.23,340.35 1049.23,384.8 1049.23,669.95 172.42,669.95 -437.23,669.95 		"/>
		<path class="st2" d="M-437.23,576.39c41.29,0,41.29-26.79,82.58-26.79c41.29,0,41.29,26.79,82.58,26.79
			c41.29,0,41.29-26.79,82.58-26.79c41.29,0,41.29,26.79,82.58,26.79c41.29,0,41.29-26.79,82.58-26.79s41.29,26.79,82.58,26.79
			c41.29,0,41.29-26.79,82.58-26.79c41.29,0,41.29,26.79,82.58,26.79c41.29,0,41.29-26.79,82.58-26.79
			c41.29,0,41.29,26.79,82.58,26.79c41.29,0,41.29-26.79,82.58-26.79s41.29,26.79,82.58,26.79c41.29,0,41.29-26.79,82.58-26.79
			c41.29,0,41.29,26.79,82.58,26.79c41.29,0,41.29-26.79,82.58-26.79c41.29,0,41.29,26.79,82.58,26.79
			c41.29,0,41.29-26.79,82.58-26.79s41.29,26.79,82.58,26.79v100.56H-437.23V576.39z"/>
		<use xlink:href="#SVGID_1_"  style="overflow:visible;fill:none;stroke:#000000;stroke-width:4;stroke-miterlimit:10;"/>
	</g>
</g>
<g id="flag">
	<g id="XMLID_14_">
		<g>
			<path class="st3" d="M472.11,175.93l-13.28,13.6c-36.58-35.74-83.54-53.43-83.54-53.43l-2.67,8.76
				c-39.51-13.31-88.38-15.81-138.73,12.65l-15.55-19.06c26.31-15.87,58.91-25.32,102.33-26.34
				C387.38,110.55,436.87,143.39,472.11,175.93z"/>
			<path class="st4" d="M453.28,194.93l-12.88,13.72c-26.22-22.94-51.08-36.69-73.7-44.38c-70.48-23.93-119.07,11.17-119.07,11.17
				l15.49,19.81c-6.24,3.28-12.15,7.05-17.58,11.2l-16.3-17.9c0,0-25.06,22.65-32.02,33.01l-18.68-11.14
				c13.37-17.4,36.34-38.98,36.34-38.98l-16.16-19.11c6.15-5.05,12.65-9.69,19.61-13.86l15.55,19.06
				c50.35-28.45,99.23-25.96,138.73-12.65C410.3,157.54,439.48,180.05,453.28,194.93z"/>
			<path class="st3" d="M434.52,214.68l-11.63,12.5c-22.62-21.06-62.83-44.78-99.81-46c-21.17-0.7-42,4.67-59.95,14.07l-15.49-19.81
				c0,0,48.58-35.1,119.07-11.17l-2.18,7.16C408.99,189.79,434.52,214.68,434.52,214.68z"/>
			<path class="st3" d="M229.24,188.55l16.3,17.9c-10.65,8.15-19.58,17.87-25.96,28.48l-22.36-13.37
				C204.18,211.2,229.24,188.55,229.24,188.55z"/>
			<path class="st3" d="M198.73,152.32l16.16,19.11c0,0-22.97,21.58-36.34,38.98l-21.03-12.59
				C169.9,180.43,183.18,165.05,198.73,152.32z"/>
		</g>
		<g>
			<path class="st5" d="M178.54,210.42l-21.03-12.59c12.39-17.4,25.67-32.78,41.22-45.51"/>
			<path class="st5" d="M197.22,221.56l22.36,13.37c6.38-10.62,15.32-20.33,25.96-28.48"/>
			<path class="st5" d="M263.12,195.25c17.95-9.4,38.78-14.76,59.95-14.07c36.98,1.22,77.18,24.94,99.81,46l11.63-12.5
				c0,0-25.53-24.89-69.99-43.25l2.18-7.16"/>
			<path class="st5" d="M372.62,144.86l2.67-8.76c0,0,46.96,17.69,83.54,53.43l13.28-13.6c-35.24-32.54-84.73-65.38-151.44-63.81
				c-43.42,1.02-76.02,10.47-102.33,26.34"/>
			<path class="st5" d="M372.62,144.86c-39.51-13.31-88.38-15.81-138.73,12.65l-15.55-19.06c-6.96,4.18-13.46,8.82-19.61,13.86
				l16.16,19.11c0,0-22.97,21.58-36.34,38.98l18.68,11.14c6.96-10.36,32.02-33.01,32.02-33.01l16.3,17.9
				c5.42-4.15,11.34-7.92,17.58-11.2l-15.49-19.81c0,0,48.58-35.1,119.07-11.17c22.62,7.69,47.48,21.44,73.7,44.38l12.88-13.72
				C439.48,180.05,410.3,157.54,372.62,144.86z"/>
		</g>
	</g>
</g>
<g id="aura">
	<circle class="st6" cx="305.31" cy="209.24" r="37.8"/>
</g>
<g id="gun">
	<path d="M180.71,213.32c-0.34,0.67-0.1,0.88,0.32,1.2c0.43,0.31,5.07,2.86,5.07,2.86l0.2-0.35l21.7,12.26l0.29-0.51l4.1,2.32
		l0.7,1.17l6.85,3.87c0,0,0.07,0.6,0.74,1.18c0.67,0.58,1.47,0.19,1.67-0.1l4.29,2.42l-1.01,1.78c0,0-0.56,0.81,0.25,1.4
		c0.81,0.58,2.07,1.27,2.07,1.27l-0.04,3.02c0,0,0.47,0.73,1.16,0.47c0.68-0.26,1.22-0.64,1.22-0.64l26.4,14.91
		c0,0,0.96,0.5,1.35-0.12c0.39-0.62,0.52-0.92,0.52-0.92l0.54,0.31c0,0,1.59,2.29,1.93,2.37s0.59-0.39,0.85-0.86
		c0.27-0.47,0.58-0.97,0.58-0.97l1.01,0.57l-0.77,1.36c0,0,0.96,3.08,0.75,3.59c-0.22,0.51-5.64,10.2-11.04,16.32
		c-5.4,6.12-6.01,6.5-6.46,6.91c-0.45,0.41-1.3,0.82-0.62,1.88c0.68,1.05,8.16,8.28,8.16,8.28s1.16,1.1,2.25,0.16
		c1.09-0.94,12.04-13.15,15.1-18.27c0,0,2.75,3,5.23,4.51s5.31,1.61,5.31,1.61s1.71,0.52,1.55,2.27c-0.15,1.75-1.44,11.7-1.44,11.7
		s0.02,0.85-0.86,1.24c-0.89,0.39-0.86,1.24-0.07,1.8c0.8,0.56,9.91,1.26,9.91,1.26s1.37-0.06,1.4-1.88
		c0.03-1.82-0.04-14.2-0.04-14.2s0.26-2.13,2.13-2.69c1.87-0.56,2.84-0.12,3.29-0.7c0.44-0.58,1-1.27,1-1.27l1.11,0.79
		c0,0-0.67,1.68,0.14,2.41c0.81,0.73,2,0.4,2.67-0.49s1.18-2.2,1.18-2.2l1.68,0.95l12.92,26.67c0,0-1.06,1.14-0.2,2.32
		c0.86,1.18,3.26,1.84,3.26,1.84s1.08,0.68,2.57-0.98c1.49-1.66,5.3-8.88,8.34-11.82c3.05-2.93,4.62-5.1,5.37-6.55
		c0.75-1.45,1-3.25-0.04-3.98c-1.05-0.73-1.83-0.2-1.83-0.2l-32.85-18.55c0,0,1.32-2.1,0.62-2.7c-0.7-0.6-1.42-0.8-1.42-0.8
		s-0.03-1.06-0.53-1.27c-0.5-0.22-5.95-3.36-5.95-3.36l3.78-6.68c0,0,0.37-0.9-0.67-1.28c-1.04-0.38-3.29,0.29-4.57,3.18l-5.03-1.17
		c0,0-0.81-0.04-1.23,0.7c-0.42,0.74-0.95,1.69-0.95,1.69l-0.64-0.36l0.48-0.86l-0.95-0.53l-0.48,0.85l-1.03-0.58l0.47-0.85
		l-0.95-0.53l-0.47,0.84l-1.03-0.58l0.47-0.84l-0.95-0.53l-0.47,0.84l-1.03-0.58l0.47-0.83l-0.95-0.53l-0.46,0.83l-1.03-0.58
		l0.46-0.82l-0.95-0.53l-0.46,0.82l-1.03-0.58l0.46-0.82l-0.95-0.53l-0.45,0.81l-1.03-0.58l0.45-0.81l-0.95-0.53l-0.45,0.8
		l-1.03-0.58l0.45-0.8l-0.95-0.53l-0.44,0.8l-1.03-0.58l0.44-0.79l-0.95-0.53l-0.44,0.79l-0.76-0.43c0,0-0.65-0.09-1.02,0.33
		s-0.42,0.74-0.42,0.74c-0.36-0.48-0.58-0.33-0.58-0.33s0.84-1.12,0.18-1.43c-0.66-0.3-3.25-1-3.25-1l0.39-0.68
		c0,0,0.3-0.53-0.84-1.1c-1.14-0.57-29.16-15.99-29.16-15.99l-1.51,0.33l-1.27-11.27c0,0,0.02-1.38-1.38-1.61
		c-1.4-0.23-1.95,0.5-2.61,1.79c-0.66,1.29-4.98,8.79-4.98,8.79l-6.99-3.95l-1.08-0.05l-4.21-2.38l0.36-0.63l-21.73-12.27l0.22-0.38
		l-5.25-2.97c0,0-0.5-0.27-0.83,0.19C182.12,210.88,181.04,212.65,180.71,213.32z M314,301.36c0.4-0.63,0.78-0.19,0.78-0.19
		s2.46,4.64,2.41,5.6s-0.87,0.36-0.87,0.36S313.6,301.98,314,301.36z M313.94,293.94c0.6-0.43,1.26-0.1,1.26-0.1l6.7,6.26
		c0,0,1.09,0.3,0.76-0.65c-0.32-0.94-1.92-3.36-1.92-3.36l6.34,3.55c0,0,1.08,0.38,0.29,1.95c-0.79,1.57-5.64,7.68-5.64,7.68
		s-1.52,1.92-2.25,0.58c-0.72-1.35-5.77-14.64-5.77-14.64S313.34,294.37,313.94,293.94z M273.92,279.25c0.97-1.33,3.16-1.1,3.16-1.1
		l2.87,1.51c0,0,0.67,0.96,0.25,2.51c-0.42,1.55-2.06,2.47-2.26,2.76c-0.21,0.29,1.71-0.03,2.81-1.34c1.09-1.31,1.24-3.02,1.24-3.02
		c0.89,0.72,2.02,2.79,1.12,4.39c-0.9,1.6-3.6,3.33-7.07,0.97C272.57,283.58,272.95,280.59,273.92,279.25z M226.13,227.87
		c0,0,0.4,0.28,0.99,0.56c0.59,0.28,0.81-0.41,0.81-0.41l0.79-1.42l1.2,0.67c0,0,1.2,5.64,1,6.55c-0.2,0.91-1.09,0.42-1.09,0.42
		s-4.28-2.42-4.9-2.74c-0.62-0.32-0.3-0.95-0.3-0.95L226.13,227.87z"/>
</g>
<g id="bayonet">
	<path d="M216.58,236.02l-9.03-5.23l1.29-2.13l-1.29-0.89l-1.49,2.18l-43.06-25.1c0,0-5.44-3.2-9.33-2.88
		c1.46,3.23,6.76,6.15,6.76,6.15l43.34,25.5l-1.34,2.39l1.57,0.96l1.56-2.46l11.41,6.4c0,0-0.99,3.33,1.89,1.94l2.14-4.53
		c0,0,0.93-3.11-2.44-1.22L216.58,236.02z"/>
</g>
<g id="hand">
	<g id="XMLID_13_">
		<g>
			<path class="st7" d="M246.27,240.9h0.03c1.33,1.48,2.32,2.81,2.84,3.63c-0.61,0.03-9.75,0.55-3.51,6.35
				c0.35,1.16,2.09,0.93,3.13,2.44c1.71,3.54-0.67,6.35-0.67,6.35l26.08,19.9l-11.95,10.24l-2.93-8.12
				c-9.31-17.35-22.13-21.87-24.22-24.92c-5.31-7.8-6.58-12.41-6.58-12.41s-0.38-7.16,2.73-10.06c3.36-0.64,6.44,0.23,9.08,1.74
				c0.96,0.52,1.83,1.13,2.67,1.8C244.21,238.81,245.34,239.89,246.27,240.9z"/>
			<path class="st7" d="M249.17,244.53c0.32,0.46,0.49,0.75,0.49,0.75c-2.87,0.58-4.23,3.68-4.12,5.25c0,0.12,0.03,0.23,0.09,0.35
				c-6.24-5.8,2.9-6.32,3.51-6.35H249.17z"/>
		</g>
		<g>
			<path class="st5" d="M249.17,244.53c0.32,0.46,0.49,0.75,0.49,0.75c-2.87,0.58-4.23,3.68-4.12,5.25c0,0.12,0.03,0.23,0.09,0.35
				c0.35,1.16,2.09,0.93,3.13,2.44c1.71,3.54-0.67,6.35-0.67,6.35l26.08,19.9l-11.95,10.24l-2.93-8.12
				c-9.31-17.35-22.13-21.87-24.22-24.92c-5.31-7.8-6.58-12.41-6.58-12.41s-0.38-7.16,2.73-10.06c3.36-0.64,6.44,0.23,9.08,1.74
				c0.96,0.52,1.83,1.13,2.67,1.8c1.25,0.99,2.38,2.06,3.31,3.07"/>
			<path class="st5" d="M246.3,240.9c1.33,1.48,2.32,2.81,2.84,3.63"/>
			<path class="st5" d="M240.3,236.03c0,0-7.37-1.94-7.72,8.03"/>
			<path class="st5" d="M242.96,237.83c0,0-6.9,0.44-6.61,7.6"/>
			<path class="st5" d="M246.3,240.9h-0.03c-0.46-0.06-6.44-0.61-7.08,7.28"/>
			<path class="st5" d="M249.17,244.53h-0.03c-0.61,0.03-9.75,0.55-3.51,6.35"/>
		</g>
	</g>
</g>
<g id="horse">
	<path d="M411.11,368.26l4.49,8.15l0,0c0,0,10.97,14.86,2.08,36.66c0.28-0.14-2.64,6.67,6.53,10.69c0,0,4.86,2.22,10.14,12.5
		c0,0,10.28,3.19,15.14,6.94c1.39,1.81,0.56,12.77,2.64,12.08c0,0,5.14,22.63,17.5,43.18c0,0,4.05,8.05-3.15,12.64
		c0,0-1.11,3.61,1.76,6.39c2.87,2.78-8.52,6.02-8.52,6.02s0.85,12.68-2.29,20.37l-23.63,1.66l8.52-15.92c0,0-4.35-4.44,5.09-7.87
		v-10c0,0,11.39-10.28,0.09-28.51c-4.81-13.42-8.05-15.64-8.05-15.64s-3.7-1.02-6.76-8.24c-5.74-3.7-10.55-2.48-10.55-2.48
		l6.11,3.77c0,0,7.78-1.39,5.28,13.05c0,0,6.76,20.74,11.94,29.07c3.24,4.17-4.63,7.59-4.63,7.59l-0.19,2.31
		c0,0,7.68,11.39-5.74,11.39c2.68,6.39-2.13,7.59-2.13,7.59l-2.43,11.55l-23.77,1.6l8.79-14.44c0,0-1.11-5.46,5.18-6.48
		c-6.94-7.13,6.29-13.52,6.29-13.52s5.37-13.61-8.89-30.36c0,0-6.02-2.41-10.09-11.39c0,0-8.1-0.83-11.71-5.69
		c0,0-38.88-4.58-46.93-34.85c-3.89-10.69-20.41-6.53-20.41-6.53s-54.71,24.02-95.95-24.44c-12.08,5.97-23.19-1.67-23.19-1.67
		c-13.47,4.03-29.85,0-29.85,0s0.14,2.64-4.58,7.08l-2.64,24.86c5.97,9.58-1.53,10.69-1.53,10.69s-1.39,4.17,10.14,6.25l-0.97,23.05
		c0,0-11.66-4.3-13.75-12.36c-6.67-1.25-5.42-7.64-5.42-7.64s0.69-4.58-4.86-5.69c-3.33-10.28,1.81-13.89,1.81-13.89l1.67-23.47
		c0,0-14.02-32.21,15.69-27.22c11.8-1.25-11.94-3.75-11.94-3.75c-11.9-2.78-9.95-3.98-9.95-3.98s-0.93,2.59-10.28,5.28l-1.2,20.27
		c7.5,11.66-1.39,13.42-1.39,13.42v1.67c0,0,4.35-1.2,5.09,5.28l7.31,5.55l-6.57,22.96c0,0-8.05-3.52-11.48-14.81
		c-2.5-4.81-5.74-5.92-5.74-5.92l-0.37-8.05c0,0-0.93-2.13-3.98-2.87s4.54-37.21,4.54-37.21s-4.54-28.42,15.27-25.19
		c20.83,2.87,26.2,2.24,41.38,0.66c0,0,0.56-13.89,7.04-17.68c6.94-10.09,7.23-26.84,7.23-26.84c-1.12-20.46-8.24-2.6-8.24-2.6
		c-6.39,6.29-10.09,6.2-10.09,6.2s-3.15,10.09-8.7,15.83c-0.74,13.05-5.92,20.09-14.26,14.16c8.24-17.22-3.7-0.09-3.7-0.09
		s-9.26,6.48-9.91-17.59c2.31-9.53,1.3-44.06,1.3-44.06c-1.02-5.55-10.28-10.55-10.28-10.55c7.87-2.13,11.02-8.42,11.02-8.42
		c-3.15-0.65-5-2.68-5-2.68s7.04-1.94,7.87-4.26s-4.44-9.16-4.44-9.16s11.11,4.26,15.83,4.35c-6.2-11.76-4.72-16.2-4.72-16.2
		c19.25,0.56,21.48,15.83,21.48,15.83c10.65-10.55,24.9-6.67,24.9-6.67c-0.83,3.24-4.26,4.63-4.26,4.63c8.7,1.94,15-3.24,15-3.24
		c0.46,2.96-1.76,6.2-1.76,6.2c8.42-0.65,14.26,1.85,14.26,1.85c2.96,2.87,11.48-0.09,11.48-0.09c0.46,3.89-2.68,6.76-2.68,6.76
		s11.02,9.72,18.05,8.05c-0.28,3.61-3.15,4.35-3.15,4.35s15.03,14.71,24.35,47.95c8.89,31.1,105.81,30.52,105.81,30.52
		c13.06,0.03,20.55,10.58,20.55,10.58s12.5,0.74,37.31-7.96c43.14,4.88,51.47,64.15,51.47,64.15s-6.94-3.8-10-12.13
		c7.87,37.21,16.94,38.88,16.94,38.88s-15.55,10.83-24.72-22.12c0.83,17.22,3.8,20.55,3.8,20.55s-8.33,1.2-14.44-21.85
		c-0.93,16.01,4.44,19.25,4.44,19.25s-15.37-2.68-13.05-32.21c0,0-3.26,10.36-0.76,20.27c0,0-17.02-9.44-9.43-32.58
		c-5.37,8.98-3.52,15.18-3.52,15.18s-8.33-5.92-6.85-25.64C430.18,361.96,411.11,368.26,411.11,368.26z"/>
</g>
<g id="horse_straps">
	<path class="st8" d="M186.75,342.71l4.81-8.8c36.32,25.68,99.07,38.3,99.07,38.3l-1.68,8.27
		C230.34,372.27,186.75,342.71,186.75,342.71z"/>
	<path class="st8" d="M411.43,367.31c0,0-6.72,5.3-25.06,10c-1.44-22.89-12.39-31.55-12.39-31.55l-11.61,1.65
		c10.51,6.1,13.18,22.94,12.97,32.34c-14.54,2.76-34.22,4.84-60.37,4.69l-1.07,10.17c0,0,56.75,4.39,102.15-19.27L411.43,367.31z"/>
	<path class="st8" d="M295.62,393.19c-1.5,23.18-17.14,31.4-17.14,31.4c4.38,3.91,11.77,3.22,11.77,3.22
		c20.2-10.54,16.78-34.62,16.78-34.62H295.62z"/>
	<path class="st8" d="M186.16,248.67c-11.9,18.84-25.72,63.63-25.72,63.63h5.91c6.95-23.2,26.9-63.33,26.9-63.33L186.16,248.67z"/>
	<path class="st8" d="M147.78,270.33c12.98-4.34,25.96,0.29,25.96,0.29l-1.41,5.92c-13.88-3.78-24.56,0-24.56,0V270.33z"/>
	<circle class="st8" cx="175.64" cy="276.54" r="6.22"/>
	<path class="st8" d="M145.89,313.59c9.43-4.77,16.02-0.73,16.02-0.73v4.29c-10.88-0.83-16.02,2.9-16.02,2.9V313.59z"/>
	<path class="st8" d="M162.54,319.13c0.49,8.35-1.64,12.8-1.64,12.8h2.18c3.23-6.54,1.93-13.08,1.93-13.08L162.54,319.13z"/>
	<path class="st8" d="M166.67,313.69c70.74-7.42,107.64-21.34,107.64-21.34l1.6,5.46c-62.93,17.85-109.14,21.03-109.14,21.03
		L166.67,313.69z"/>
	<circle class="st8" cx="163.03" cy="316.33" r="4.5"/>
</g>
<g id="horse_eye">
	<path class="st7" d="M165.57,280.02c-9.21-0.73-9.21,10.27-9.21,10.27C168.17,287.54,165.57,280.02,165.57,280.02z"/>
</g>
<g id="neck">
	<path class="st9" d="M325.34,241.05l-12.51,5.43c-1.65,0.72-3.59-0.05-4.3-1.7l-8.71-20.08c-0.72-1.65,0.05-3.59,1.7-4.3
		l12.51-5.43c1.65-0.72,3.59,0.05,4.3,1.7l8.71,20.08C327.75,238.4,326.99,240.34,325.34,241.05z"/>
</g>
<g id="cape">
	<g id="XMLID_2_">
		<g>
			<path class="st10" d="M434.98,292.53h-0.03c-11.11-3.25-0.87-16.21,3.65-23.87c4.96-8.18-1.16-8.53-2.52-8.5
				c0.73-0.9,1.48-1.77,2.23-2.64l4.81-4.61c8.99-8.99,20.62-10.62,26.45-3.6c0.03,0.03,0.03,0.03,0.03,0.03
				c2.12,2.49,3.45,6.09,3.71,10.82c0.55,10.44-29.06,41.39-10.01,34.78c-4.93,7.89-10.67,8.67-13.31,5.25
				c-0.44,0.03-5.28,0.29-7.86-2.38h-0.03C441.62,297.73,436.55,296.65,434.98,292.53z"/>
			<path class="st10" d="M449.8,239.74c14.01-3.6,19.52,8.88,19.78,9.57c-5.83-7.02-17.46-5.4-26.45,3.6l-4.81,4.61
				c-0.75,0.87-1.51,1.74-2.23,2.64c-9.63,11.92-15.84,26.66-22.48,36.08c-14.24,14.53-26.92,4.93-26.92,4.93
				c-6.7,0.35-10.56-3.57-10.56-3.57c-5.71,0.96-9.98-1.36-9.46-10.82c2.06,5.86,6.06,5.71,10.7,2.58c2.47-1.65,5.11-4.15,7.72-7.02
				c2.2-2.41,4.38-5.08,6.44-7.74c2.96-3.86,5.66-7.72,7.74-10.76c8.5-12.47,21.75-31.33,34.55-25.53l0.06,0.15
				C443.74,233.62,449.8,239.74,449.8,239.74z"/>
			<path class="st10" d="M339.64,232.09c2.67-1.54,5.48-2.7,8.3-2.78c6.9,0,8.59,3.39,8.59,3.39l0.03,0.12
				c28.89-5.6,34.98,41.8,34.98,41.8c-2.06,2.67-4.23,5.34-6.44,7.74c-2.61,2.87-5.25,5.37-7.72,7.02
				c-4.64,3.13-8.64,3.28-10.7-2.58c0,0,5.28-29.06-18.68-21.75c0,0-3.77-11.83-38.75-16.5l0.67-5.4c6.18,0,16.13-10.18,16.13-10.18
				C333.08,228.81,339.64,232.09,339.64,232.09z"/>
			<path class="st10" d="M309.91,243.14l-0.67,5.4c-4.73-0.64-10.04-1.13-15.98-1.45c0.99-7.16,11.95-9.54,11.95-9.54
				C305.7,241.66,307.53,243.14,309.91,243.14z"/>
		</g>
		<g>
			<path class="st11" d="M324.79,240.73c3.65,0.15,8.96-5.19,14.85-8.64c2.67-1.54,5.48-2.7,8.3-2.78c6.9,0,8.59,3.39,8.59,3.39"/>
			<path class="st11" d="M338.83,241.43c6.7-4.96,12.59-7.63,17.72-8.61c28.89-5.6,34.98,41.8,34.98,41.8"/>
			<path class="st11" d="M401.86,283.19c0,0-15.32,12.68-25.73,14.42c-5.71,0.96-9.98-1.36-9.46-10.82c0,0,5.28-29.06-18.68-21.75
				c0,0-3.77-11.83-38.75-16.5c-4.73-0.64-10.04-1.13-15.98-1.45c0.99-7.16,11.95-9.54,11.95-9.54c0.49,4.12,2.32,5.6,4.7,5.6
				c6.18,0,16.13-10.18,16.13-10.18c7.05-4.15,13.6-0.87,13.6-0.87"/>
			<path class="st11" d="M400.75,294.94c-5.48,4.5-10.27,6.06-14.07,6.24c-6.7,0.35-10.56-3.57-10.56-3.57"/>
			<path class="st11" d="M438.32,257.52c-0.75,0.87-1.51,1.74-2.23,2.64c-9.63,11.92-15.84,26.66-22.48,36.08
				c-14.24,14.53-26.92,4.93-26.92,4.93"/>
			<path class="st5" d="M435.85,260.16c0,0,0.09,0,0.23,0c1.36-0.03,7.48,0.32,2.52,8.5c-4.52,7.66-14.76,20.62-3.65,23.87"/>
			<path class="st11" d="M440.93,276.9c-6.38,7.6-7.19,12.5-5.95,15.63c1.57,4.12,6.64,5.19,7.14,5.28"/>
			<path class="st11" d="M448.24,277.45c-8.96,11.95-8.7,17.66-6.12,20.36h0.03c2.58,2.67,7.43,2.41,7.86,2.38c0.03,0,0.03,0,0.03,0
				"/>
			<path class="st11" d="M456.39,252.62c12.65-5.51,14.44,13.05,1.57,24.83c-9.95,10.09-10.85,18.97-7.95,22.74
				c2.64,3.42,8.38,2.64,13.31-5.25c0.09-0.15,0.2-0.32,0.29-0.46"/>
			<path class="st11" d="M469.61,249.34c2.12,2.49,3.45,6.09,3.71,10.82c0.55,10.44-29.06,41.39-10.01,34.78"/>
			<path class="st11" d="M443.13,252.91c8.99-8.99,20.62-10.62,26.45-3.6"/>
			<path class="st11" d="M433.82,238.32c-12.79-5.8-26.05,13.05-34.55,25.53c-2.09,3.05-4.79,6.9-7.74,10.76
				c-2.06,2.67-4.23,5.34-6.44,7.74c-2.61,2.87-5.25,5.37-7.72,7.02c-4.64,3.13-8.64,3.28-10.7-2.58"/>
			<path class="st11" d="M367.46,248.44c20.16,10.09,17.64,33.91,17.64,33.91"/>
			<path class="st11" d="M368.3,258.77c11.25,8.79,9.08,30.6,9.08,30.6"/>
			<path class="st11" d="M420.54,250.39c4.93-6.41,9.43-10.01,13.34-11.92c9.86-4.84,15.92,1.28,15.92,1.28"/>
			<path class="st11" d="M439.42,244.64c3.89-2.61,7.34-4.15,10.38-4.9c14.01-3.6,19.52,8.88,19.78,9.57
				c0.03,0.03,0.03,0.03,0.03,0.03"/>
		</g>
	</g>
</g>
<g id="foot_strap_line">
	<polygon class="st8" points="238.69,418.87 267.16,366 274.31,367.79 246.49,421.95 	"/>
</g>
<g id="saddle">
	<g id="XMLID_3_">
		<g>
			<path class="st7" d="M354.11,339.06c6.5-0.44,8.99,9.57,0.78,7.19c-0.58-0.15-1.1,0.35-1.02,0.96
				c6.18,37.68-20.77,58.42-55.66,50.47c-23.78-5.42-57.11-21.93-26.86-58.45c30.28-36.49,16.33-4.47,16.33-4.47
				s-14.97,13.37-18.59,26.37c-3.63,13.02,22.68,32.78,51.69,28.69c30.22-4.26,26.02-43.1,26.02-43.1
				C348.08,341.06,350.11,339.32,354.11,339.06z"/>
			<path class="st4" d="M346.8,346.72c0,0,4.21,38.84-26.02,43.1c-29.01,4.09-55.31-15.66-51.69-28.69
				c3.63-12.99,18.59-26.37,18.59-26.37S334.45,352.26,346.8,346.72z"/>
		</g>
		<g>
			<path class="st5" d="M346.8,346.72c0,0,4.21,38.84-26.02,43.1c-29.01,4.09-55.31-15.66-51.69-28.69
				c3.63-12.99,18.59-26.37,18.59-26.37S334.45,352.26,346.8,346.72z"/>
			<path class="st5" d="M287.69,334.77c0,0,13.95-32.02-16.33,4.47c-30.25,36.52,3.07,53.02,26.86,58.45
				c34.89,7.95,61.84-12.79,55.66-50.47c-0.09-0.61,0.44-1.1,1.02-0.96c8.21,2.38,5.71-7.63-0.78-7.19c-4,0.26-6.03,2-7.31,7.66"/>
		</g>
	</g>
</g>
<g id="left_leg">
	<path class="st6" d="M335.41,352.52c-11.88,18.26-39.1,30.92-44.32,34.54c-10.91,7.55-10.34,15.24-11.19,23.91
		c-1.4,14.4-12.99,16.36-24.05,30.9c-4.89,6.43-24.97-2.68-24.97-2.68c15.19-9.34,27.91-42.62,27.91-42.62
		c3.36-9.51,1.97-10.67,1.4-14.26c-1.01-6.39,7.83-10.35,7.83-10.35c13.56-7.41,19.3-28.94,19.3-28.94L335.41,352.52z"/>
	<path class="st6" d="M283.59,391.21l-13.5-16.59c-1.77-2.17-1.99-5.05-0.38-6.25l0,0c1.62-1.2,4.31-0.14,5.87,2.19l11.89,17.78
		c0.73,1.09,0.47,2.56-0.55,3.32l0,0C285.91,392.41,284.43,392.23,283.59,391.21z"/>
	<path class="st6" d="M258.82,376.84L258.82,376.84c-1.12,1.93-0.11,4.39,2.04,4.98l11.2,3.06c0.3,0.08,0.52-0.29,0.3-0.51
		l-8.2-8.21C262.58,374.57,259.94,374.91,258.82,376.84z"/>
	<path class="st6" d="M282.83,395.82l-21.79-1.22c-1.64-0.09-2.86-1.54-2.68-3.17l0,0c0.18-1.63,1.7-2.77,3.31-2.5l21.52,3.63
		c0.86,0.14,1.45,0.93,1.36,1.8l0,0C284.46,395.23,283.7,395.87,282.83,395.82z"/>
</g>
<g id="left_foot">
	<path class="st6" d="M211.59,436.37c26.19-8.41,32.84,0.88,35.22-0.41c4-2.16,2.55-5.24,2.54-5.25c0,0,0,0,0,0
		c1.91-0.91,7.51,1.89,7.63,4.77c-1.17-0.42-4.76,1.59-3.02,6.36c5.97,9.68-1.81,12-1.81,12
		C228.5,447.49,211.59,436.37,211.59,436.37z"/>
</g>
<g id="foot_strap_bottom">
	<polygon class="st8" points="236.4,427.58 218.69,445.09 244.05,456.36 244.05,421.95 	"/>
	<circle class="st8" cx="241.31" cy="423.31" r="5.18"/>
</g>
<g id="body">
	<path class="st6" d="M338.54,320.03c4.64,7.14,8.21,24.07,9.3,29.67c0.2,1.04-0.45,2.03-1.48,2.27c-8.73,2-46.63,9.5-65.77-6.06
		c-0.71-0.57-0.89-1.59-0.48-2.4l13.14-26.16c0.13-0.26,0.2-0.55,0.21-0.84l0.87-48.59c0.02-1.07,0.89-1.92,1.96-1.92h34.29
		c1,0,1.84,0.75,1.95,1.74l5.74,51.51C338.29,319.52,338.38,319.78,338.54,320.03z"/>
</g>
<g id="left_arm">
	<path class="st6" d="M331.2,250.79c20.76-2.78,16.18,17.2,16.24,25.25c0,0,6.15,27.65,3.97,34.67c-2.19,7.02-8.5,8.82-11.98,9.21
		c-24.71,2.78-57.3-14.66-57.3-14.66l5.81-12.25c0,0,25.76,13.31,32.8,8.1C334.59,278.24,311.74,255.28,331.2,250.79z"/>
	<path class="st12" d="M349.85,274.72l-25.63,2.67c-0.52,0.05-0.99-0.33-1.05-0.85l-0.38-3.61c-0.05-0.52,0.33-0.99,0.85-1.05
		l25.63-2.67c0.52-0.05,0.99,0.33,1.05,0.85l0.38,3.61C350.75,274.19,350.37,274.66,349.85,274.72z"/>
	<path class="st6" d="M350.25,293.58l-25.28,3.94c-0.23,0.04-0.42,0.15-0.63,0.24c-0.05,0.02-0.11,0.02-0.16,0.04
		c-0.02,0.01-0.03,0.02-0.04,0.03c-0.3,0.16-0.55,0.36-0.77,0.61c-0.02,0.02-0.04,0.03-0.06,0.05c-0.52,0.61-0.8,1.41-0.67,2.25
		c0.07,0.44,0.26,0.82,0.51,1.16l10.04,19.97c0.68,1.36,2.36,1.91,3.72,1.23c1.36-0.68,1.91-2.36,1.23-3.72l-7.96-15.82
		c-0.27-0.54,0.06-1.2,0.66-1.29l20.31-3.13c1.53-0.25,2.58-1.7,2.33-3.23C353.23,294.38,351.78,293.33,350.25,293.58z"/>
	<path class="st6" d="M339.89,308.3l11.21,2.65c1.62,0.38,2.41,2.22,1.57,3.66l-0.43,0.74c-0.92,1.59-3.06,1.95-4.45,0.76
		l-8.27-7.08C339.19,308.74,339.46,308.2,339.89,308.3z"/>
</g>
<g id="holster_front">
	<path class="st13" d="M320.58,363.1c-5.56-2.3-10.18-5.07-8.57-13.28c0.28-1.45,1.26-2.69,2.57-3.36c4.7-2.42,6.01-4.32,6.01-4.32
		c5.27-3.73,15.82-4.52,16.31-0.55c0.49,3.98,0.57,18.91-3.81,20.29C328.69,363.27,320.58,363.1,320.58,363.1z"/>
</g>
<g id="pistol">
	<path class="st14" d="M324.77,329.9c4.17,8.62,14.04-6.17,16.83-5.75c4.07,0.61,6.25,9.09,5.96,10.42
		c-0.48,2.2-11.4,4.37-12.49,7.19c-0.85,2.22,0.44,12.95,1.04,17.43c0.15,1.14-0.56,2.21-1.66,2.54l-5.36,1.56
		c-1.69,0.49-3.44-0.55-3.81-2.28l-5.75-27.45c-0.18-0.84,0.28-1.69,1.08-2.01L324.77,329.9z"/>
</g>
<g id="holster_back">
	<path class="st13" d="M319.61,348.68c-0.28-0.87-0.12-1.81,0.53-2.46c2.45-2.44,6.5-4.56,9.71-4.84c3.17-0.08,4.58,2.73,7.95,4.12
		c0.69,0.29,1.26,0.82,1.45,1.54c1.42,5.28-2.17,17.49-3.04,19.27c-1.73,3.54-12.22,4.95-14.19,1.2
		C320.68,364.97,321.55,354.65,319.61,348.68z"/>
</g>
<g id="shield">
	<g id="XMLID_6_">
		<g>
			<path class="st3" d="M333.08,250.13c-0.55,15.75-2.73,29.82-5.95,42.23c-3.83-2.67-30.98-3.97-30.98-3.97l0.99-41.22
				C307.36,247.46,319.42,248.33,333.08,250.13z"/>
			<path class="st4" d="M327.14,292.36c-1.89,7.31-4.12,14.07-6.58,20.25c-0.73-0.17-13.75-3.36-24.68-2.38l-0.75,45.13
				c-7.05,8.24-12.27,12.15-12.27,12.15s-3.25-5.8-7.34-16.33h0.03l0.38-40.67c0,0-5.77-0.41-11.83,0.78
				c-1.28-6.53-2.41-13.52-3.22-20.97c7.08-1.89,16.07-2.29,16.07-2.29v-40.72c5.54-0.26,12.3-0.38,20.22-0.15l-0.99,41.22
				C296.16,288.39,323.31,289.69,327.14,292.36z"/>
			<path class="st3" d="M295.87,310.23c10.94-0.99,23.96,2.2,24.68,2.38c-7.77,19.69-17.69,33.79-25.44,42.75L295.87,310.23z"/>
			<path class="st3" d="M276.93,247.31v40.72c0,0-8.99,0.41-16.07,2.29c-1.42-12.65-2.03-26.54-1.28-41.48
				C259.58,248.85,265.7,247.81,276.93,247.31z"/>
			<path class="st3" d="M275.91,310.52l-0.38,40.67h-0.03c-3.71-9.6-8.15-23.18-11.43-39.88
				C270.14,310.11,275.91,310.52,275.91,310.52z"/>
		</g>
		<g>
			<path class="st5" d="M264.08,311.3c6.06-1.19,11.83-0.78,11.83-0.78l-0.38,40.67"/>
			<path class="st5" d="M276.93,247.28v0.03v40.72c0,0-8.99,0.41-16.07,2.29"/>
			<path class="st5" d="M327.14,292.36c-3.83-2.67-30.98-3.97-30.98-3.97l0.99-41.22v-0.15"/>
			<path class="st5" d="M260.86,290.33c-1.42-12.65-2.03-26.54-1.28-41.48c0,0,6.12-1.04,17.35-1.54c5.54-0.26,12.3-0.38,20.22-0.15
				c10.21,0.29,22.28,1.16,35.94,2.96c-0.55,15.75-2.73,29.82-5.95,42.23c-1.89,7.31-4.12,14.07-6.58,20.25
				c-7.77,19.69-17.69,33.79-25.44,42.75c-7.05,8.24-12.27,12.15-12.27,12.15s-3.25-5.8-7.34-16.33
				c-3.71-9.6-8.15-23.18-11.43-39.88C262.8,304.77,261.67,297.78,260.86,290.33z"/>
			<path class="st5" d="M295.12,355.36l0.75-45.13c10.94-0.99,23.96,2.2,24.68,2.38c0.03,0,0.03,0,0.03,0"/>
		</g>
	</g>
</g>
<g id="hair">
	<path d="M319.09,200.87c-1.08-7.87-9.43-15.49-18.49-15.49c-7.66,0-14.16,4.27-16.57,10.21c-1.93,2.9-3.34,7.33-3.12,10.23
		c0.26,3.42,1.11,6.31,2.18,8.54c-0.04,0.51-0.07,1.03-0.07,1.56c0,2.04,0.32,3.91,0.84,5.42c0,0.01,0,0.02,0,0.03
		c-0.26,3.29,0.78,6.82,3.14,8.98c2.36,2.16,6.3,2.55,9.91,2.55c6.53,0,17.67-5.77,21.19-5.77c6.82,0,12.93-5.7,12.93-12.69
		C331.04,208.15,325.22,202.04,319.09,200.87z"/>
</g>
<g id="head">
	<path class="st15" d="M314.7,207.39c4.29,11.64,2.44,24-3.31,27.24c-5.41,3.05-13.89-2.85-21.01-11.86
		c-0.91-1.15-1.66-2.43-2.22-3.78c-4.62-10.96-5.16-19.85,1.18-23.5C296.57,191.34,309.88,194.35,314.7,207.39z"/>
</g>
<g id="glasses">
	<ellipse transform="matrix(0.957 -0.2901 0.2901 0.957 -48.2745 96.6036)" cx="301.76" cy="211.16" rx="19.06" ry="7.05"/>
</g>
<g id="helmet">
	<g id="XMLID_5_">
		<g>
			<path class="st7" d="M329.78,205.46c0.29,0.96,0.23,1.65-0.2,1.94c-1.39,0.96-5.48,2.09-11.89-3.65
				c-3.16-2.81-22.48,5.31-30.6,8.9c-2.23,0.99-3.6,1.62-3.6,1.62c-0.84,3.74,2.76,6.24,2.76,6.24c-0.52,2.61-0.99,2.78-2.84,1.6
				c-4.35-2.84-3.22-10.36-3.22-10.36l42.44-14.71C326.65,199.98,329.11,203.34,329.78,205.46z"/>
			<path class="st7" d="M322.61,197.05l-42.44,14.71c-2.55-10.15,0.96-20.71,13.08-25.93C305.41,180.6,319.07,184.95,322.61,197.05z
				"/>
			<path class="st7" d="M287.08,212.65l-0.84,7.86c0,0-3.6-2.49-2.76-6.24C283.48,214.28,284.85,213.64,287.08,212.65z"/>
		</g>
		<g>
			<path class="st5" d="M280.18,211.75c-2.55-10.15,0.96-20.71,13.08-25.93c12.15-5.22,25.82-0.87,29.35,11.23
				c4.03,2.93,6.5,6.29,7.16,8.41c0.29,0.96,0.23,1.65-0.2,1.94c-1.39,0.96-5.48,2.09-11.89-3.65c-3.16-2.81-22.48,5.31-30.6,8.9
				c-2.23,0.99-3.6,1.62-3.6,1.62c-0.84,3.74,2.76,6.24,2.76,6.24c-0.52,2.61-0.99,2.78-2.84,1.6
				C279.05,219.26,280.18,211.75,280.18,211.75z"/>
			<path class="st5" d="M324.01,204.41c3.42,3.13,5.77,1.04,5.77,1.04"/>
			<line class="st5" x1="280.18" y1="211.75" x2="322.61" y2="197.05"/>
			<line class="st5" x1="286.24" y1="220.51" x2="287.08" y2="212.65"/>
		</g>
	</g>
</g>
<g id="mask">
	<g id="XMLID_7_">
		<g>
			<path class="st16" d="M317.8,215.03c0,0,0.91,11.4-5.13,17.92l-0.01-0.03c-0.13-0.63-2.42-10.77-8.96-15.75h1.07
				c0,0,5.66-3.69,7.01-8.42c0.16-0.54,0.87-0.66,1.21-0.21L317.8,215.03z"/>
			<path class="st16" d="M312.66,232.92l0.01,0.03c-0.19,0.21-0.4,0.42-0.61,0.62c-1.04,1-2.42,1.58-3.86,1.65
				c-1.14,0.06-2.65,0.05-4.29-0.2l-7.68-12.32l0.35-4.29c0.05-0.7,0.64-1.24,1.35-1.24h5.77L312.66,232.92z"/>
			<path class="st16" d="M312.66,232.92l-8.96-15.75C310.24,222.15,312.53,232.29,312.66,232.92z"/>
			<path class="st16" d="M296.23,222.7l7.68,12.32C303.91,235.02,298.48,231.13,296.23,222.7z"/>
			<path class="st16" d="M296.23,222.7c2.25,8.43,7.68,12.32,7.68,12.32c-4.19-0.62-9.18-2.76-10.64-9.23c0,0,2.07,0.33,2.81-1.27
				L296.23,222.7z"/>
		</g>
		<g>
			<path class="st17" d="M303.7,217.17h1.07c0,0,5.66-3.69,7.01-8.42c0.16-0.54,0.87-0.66,1.21-0.21l4.81,6.49
				c0,0,0.91,11.4-5.13,17.92c-0.19,0.21-0.4,0.42-0.61,0.62c-1.04,1-2.42,1.58-3.86,1.65c-1.14,0.06-2.65,0.05-4.29-0.2
				c-4.19-0.62-9.18-2.76-10.64-9.23c0,0,2.07,0.33,2.81-1.27l0.15-1.82l0.35-4.29c0.05-0.7,0.64-1.24,1.35-1.24H303.7z"/>
			<path class="st17" d="M312.66,232.92c-0.13-0.63-2.42-10.77-8.96-15.75"/>
			<line class="st17" x1="312.66" y1="232.92" x2="312.67" y2="232.95"/>
			<path class="st17" d="M296.23,222.7c2.25,8.43,7.68,12.32,7.68,12.32"/>
		</g>
	</g>
</g>
<g id="bag">
	<path class="st8" d="M407.57,425.97l-61.61-14.36c-3.09-0.72-5.02-3.81-4.29-6.91l1.77-7.59c0.72-3.09,3.81-5.02,6.91-4.29
		l61.61,14.36c3.09,0.72,5.02,3.81,4.3,6.91l-1.77,7.59C413.76,424.77,410.67,426.7,407.57,425.97z"/>
	<path class="st8" d="M400.06,426.26l-7.23-1.92c0,0,4.92-8.33,5.43-20.42c0,0,5.25-0.08,7.23,1.92
		C405.99,417.86,400.06,426.26,400.06,426.26z"/>
	<path class="st8" d="M354.41,415.67l7.31,1.59c0,0-0.6-9.56,4.44-20.4c0,0-4.64-2.45-7.31-1.59
		C352.93,405.6,354.41,415.67,354.41,415.67z"/>
	<path class="st8" d="M408.84,407.75l-56.31-14.96c-4.07-1.08-6.49-5.26-5.41-9.32l4.89-18.39c1.08-4.07,5.26-6.49,9.32-5.41
		l56.31,14.96c4.07,1.08,6.49,5.26,5.41,9.32l-4.89,18.39C417.09,406.41,412.91,408.83,408.84,407.75z"/>
	<path class="st8" d="M411.71,398.38l-57.01-15.15c-4.46-1.19-7.11-5.76-5.93-10.22l3.99-15.01c1.19-4.46,5.76-7.11,10.22-5.93
		l57.01,15.15c4.46,1.19,7.11,5.76,5.93,10.22l-3.99,15.01C420.74,396.91,416.17,399.57,411.71,398.38z"/>
	<g id="XMLID_4_">
		<g>
			<path class="st7" d="M367.88,377.95c2.21,0.55,3.56,2.78,3.01,4.99l-0.27,1.08l-8.89-1.88l0.37-1.39
				c0.55-2.21,2.78-3.56,4.99-3.01L367.88,377.95z"/>
			<polygon class="st7" points="370.62,384.02 368.33,393.18 359.45,391.16 361.73,382.14 			"/>
			<path class="st7" d="M368.33,393.18l-0.17,0.68c-0.58,2.21-2.81,3.56-5.02,3.01l-0.79-0.21c-2.21-0.55-3.56-2.81-3.01-5.02
				l0.11-0.48L368.33,393.18z"/>
		</g>
		<g>
			<path class="st5" d="M361.73,382.14l0.37-1.39c0.55-2.21,2.78-3.56,4.99-3.01l0.79,0.21c2.21,0.55,3.56,2.78,3.01,4.99
				l-0.27,1.08"/>
			<path class="st5" d="M368.33,393.18l-0.17,0.68c-0.58,2.21-2.81,3.56-5.02,3.01l-0.79-0.21c-2.21-0.55-3.56-2.81-3.01-5.02
				l0.11-0.48"/>
			<polygon class="st5" points="359.45,391.16 368.33,393.18 370.62,384.02 361.73,382.14 			"/>
		</g>
	</g>
	<g id="XMLID_1_">
		<g>
			<path class="st7" d="M405.55,386.9c2.24,0.43,3.7,2.62,3.27,4.86l-0.21,1.06l-8.98-1.39l0.27-1.44c0.46-2.24,2.62-3.7,4.86-3.27
				L405.55,386.9z"/>
			<polygon class="st7" points="408.6,392.82 408.47,393.6 406.76,402.12 397.82,400.54 399.62,391.44 			"/>
			<polygon class="st7" points="408.47,393.6 406.79,402.12 406.76,402.12 			"/>
			<path class="st7" d="M406.76,402.12l-0.13,0.66c-0.43,2.24-2.59,3.7-4.83,3.27l-0.8-0.17c-2.24-0.43-3.7-2.59-3.27-4.83
				l0.09-0.52L406.76,402.12z"/>
		</g>
		<g>
			<path class="st5" d="M408.47,393.6l-1.71,8.52l-0.13,0.66c-0.43,2.24-2.59,3.7-4.83,3.27l-0.8-0.17
				c-2.24-0.43-3.7-2.59-3.27-4.83l0.09-0.52"/>
			<path class="st5" d="M399.62,391.44l0.27-1.44c0.46-2.24,2.62-3.7,4.86-3.27l0.8,0.17c2.24,0.43,3.7,2.62,3.27,4.86l-0.21,1.06"
				/>
			<polygon class="st5" points="397.82,400.54 406.76,402.12 406.79,402.12 408.47,393.6 408.6,392.82 399.62,391.44 			"/>
		</g>
	</g>
</g>
<g id="name">
	<g>
		<circle class="st18" cx="306" cy="361.84" r="249.88"/>
		<path class="st3" d="M251.15,605.89l-4.3-1.15l-0.52-4.91l-7.83-2.09l-2.8,4.02l-4.2-1.12l12.86-17.55l4.18,1.12L251.15,605.89z
			 M245.94,596.2l-0.76-7.99l-4.59,6.56L245.94,596.2z"/>
		<path class="st3" d="M254.45,599.8l3.99,0.32c0,1.36,0.31,2.41,0.92,3.16c0.61,0.75,1.53,1.23,2.75,1.45
			c1.3,0.23,2.32,0.13,3.08-0.3c0.76-0.43,1.2-1.01,1.33-1.75c0.08-0.47,0.02-0.9-0.2-1.28s-0.65-0.76-1.29-1.12
			c-0.44-0.25-1.47-0.73-3.07-1.45c-2.06-0.92-3.46-1.85-4.19-2.79c-1.03-1.32-1.4-2.77-1.12-4.34c0.18-1.02,0.64-1.92,1.38-2.7
			s1.69-1.31,2.85-1.57c1.17-0.27,2.52-0.26,4.05,0.01c2.5,0.45,4.29,1.34,5.36,2.66c1.07,1.33,1.47,2.91,1.21,4.75l-4.06-0.55
			c0.01-1.06-0.23-1.86-0.71-2.41c-0.49-0.55-1.3-0.93-2.43-1.13c-1.17-0.21-2.13-0.13-2.88,0.23c-0.48,0.23-0.77,0.61-0.86,1.12
			c-0.08,0.47,0.04,0.91,0.38,1.32c0.43,0.52,1.59,1.18,3.46,2c1.88,0.81,3.24,1.55,4.09,2.22s1.46,1.47,1.84,2.42
			c0.38,0.95,0.45,2.06,0.23,3.32c-0.21,1.14-0.72,2.16-1.53,3.04c-0.81,0.88-1.85,1.46-3.09,1.74c-1.25,0.28-2.74,0.26-4.47-0.05
			c-2.52-0.45-4.36-1.38-5.5-2.79C254.81,603.92,254.31,602.08,254.45,599.8z"/>
		<path class="st3" d="M273.95,609.81l1.92-20.18l4.08,0.39l-0.85,8.96l9.09-8.18l5.48,0.52l-8.35,7.14l6.84,13.08l-5.27-0.5
			l-4.65-10l-3.63,3.06l-0.58,6.1L273.95,609.81z"/>
		<path class="st3" d="M301.77,611.82l-0.06-3.69l10.44-13.32l-9.45,0.15l-0.06-3.43l14.84-0.24l0.05,3.18l-10.88,13.86l11.53-0.19
			l0.05,3.42L301.77,611.82z"/>
		<path class="st3" d="M323.64,600.89l-3.57-0.33c0.27-1.45,0.87-2.55,1.77-3.32c0.91-0.76,2.31-1.22,4.21-1.38
			c1.73-0.15,3.03-0.05,3.91,0.29c0.88,0.34,1.52,0.81,1.92,1.41c0.4,0.6,0.67,1.74,0.81,3.42l0.34,4.52
			c0.11,1.29,0.25,2.23,0.43,2.83c0.18,0.6,0.46,1.24,0.86,1.91l-3.83,0.33c-0.12-0.25-0.28-0.62-0.47-1.11
			c-0.08-0.22-0.14-0.37-0.18-0.44c-0.61,0.7-1.27,1.24-2,1.63c-0.73,0.39-1.52,0.62-2.37,0.69c-1.51,0.13-2.73-0.18-3.67-0.92
			s-1.46-1.74-1.57-2.99c-0.07-0.83,0.06-1.58,0.4-2.26s0.85-1.22,1.53-1.63c0.68-0.41,1.68-0.79,3-1.17
			c1.78-0.49,3.01-0.92,3.68-1.27l-0.03-0.39c-0.06-0.74-0.29-1.26-0.69-1.54c-0.39-0.29-1.1-0.39-2.12-0.3
			c-0.69,0.06-1.21,0.24-1.58,0.54C324.09,599.69,323.82,600.19,323.64,600.89z M329.09,603.59c-0.48,0.21-1.25,0.47-2.31,0.79
			c-1.06,0.32-1.74,0.61-2.05,0.85c-0.47,0.4-0.69,0.88-0.64,1.43c0.05,0.54,0.29,0.99,0.73,1.35s0.97,0.51,1.59,0.46
			c0.7-0.06,1.34-0.34,1.94-0.86c0.44-0.39,0.71-0.84,0.81-1.36c0.07-0.34,0.07-0.97-0.01-1.9L329.09,603.59z"/>
		<path class="st3" d="M351.43,607.69l-3.57,0.55l-0.33-2.13c-0.46,0.92-1.07,1.65-1.81,2.18c-0.74,0.53-1.52,0.86-2.34,0.99
			c-1.67,0.26-3.2-0.19-4.6-1.35s-2.28-2.94-2.66-5.35c-0.38-2.46-0.09-4.42,0.86-5.88c0.96-1.46,2.32-2.33,4.09-2.6
			c1.62-0.25,3.13,0.21,4.52,1.37l-1.12-7.22l3.84-0.6L351.43,607.69z M340.01,601.71c0.24,1.55,0.63,2.64,1.16,3.26
			c0.78,0.91,1.72,1.27,2.83,1.1c0.88-0.14,1.58-0.63,2.08-1.48c0.5-0.85,0.64-2.02,0.41-3.51c-0.26-1.67-0.75-2.82-1.46-3.46
			c-0.71-0.64-1.54-0.89-2.48-0.74c-0.91,0.14-1.62,0.62-2.12,1.44C339.92,599.14,339.78,600.27,340.01,601.71z"/>
		<path class="st3" d="M356.59,596.18l-3.58,0.16c0.07-1.47,0.5-2.65,1.29-3.53c0.79-0.88,2.12-1.53,3.98-1.96
			c1.69-0.38,2.99-0.47,3.91-0.26s1.62,0.59,2.09,1.13c0.48,0.54,0.9,1.63,1.28,3.28l0.97,4.43c0.29,1.26,0.56,2.17,0.82,2.74
			s0.63,1.16,1.12,1.77l-3.75,0.85c-0.16-0.23-0.36-0.57-0.62-1.04c-0.11-0.21-0.19-0.35-0.24-0.41c-0.5,0.78-1.09,1.41-1.75,1.89
			s-1.42,0.82-2.25,1.01c-1.47,0.34-2.73,0.2-3.76-0.41c-1.03-0.61-1.69-1.52-1.96-2.74c-0.18-0.81-0.16-1.57,0.09-2.3
			s0.67-1.33,1.29-1.83c0.62-0.5,1.56-1.02,2.81-1.57c1.7-0.74,2.85-1.33,3.47-1.77l-0.09-0.38c-0.17-0.73-0.46-1.21-0.89-1.43
			c-0.43-0.23-1.14-0.23-2.14,0c-0.67,0.15-1.17,0.41-1.49,0.76S356.67,595.46,356.59,596.18z M362.36,598.1
			c-0.45,0.27-1.17,0.64-2.17,1.1c-1,0.46-1.64,0.84-1.91,1.13c-0.42,0.46-0.56,0.96-0.44,1.5c0.12,0.53,0.42,0.94,0.91,1.24
			c0.48,0.3,1.03,0.38,1.64,0.24c0.68-0.16,1.28-0.53,1.8-1.12c0.38-0.45,0.59-0.93,0.62-1.46c0.03-0.35-0.07-0.97-0.27-1.88
			L362.36,598.1z"/>
		<path class="st3" d="M375.59,601.9l-3.73,1.08l-4.07-14.11l3.47-1l0.58,2.01c0.32-1.12,0.67-1.9,1.06-2.33s0.88-0.74,1.48-0.92
			c0.85-0.25,1.74-0.25,2.66,0l-0.22,3.59c-0.75-0.23-1.39-0.26-1.93-0.11c-0.52,0.15-0.92,0.42-1.2,0.81
			c-0.28,0.39-0.42,1-0.41,1.81c0.01,0.81,0.36,2.42,1.05,4.82L375.59,601.9z"/>
	</g>
</g>
</svg>
