<svg id="Layer_3" data-name="Layer 3" xmlns="http://www.w3.org/2000/svg" viewBox="0 0 36.91 46.59"><title>Untitled-2</title><path d="M681.61,428.27C676.05,426,671.43,423.2,673,415a4.92,4.92,0,0,1,2.57-3.37c4.7-2.42,6-4.32,6-4.32,5.27-3.73,15.82-4.52,16.31-.54s.57,18.9-3.81,20.28S681.61,428.27,681.61,428.27Z" transform="translate(-672.21 -388.8)" fill="#00adee" stroke="#000" stroke-miterlimit="10"/><path d="M685.8,395.07c4.17,8.62,14.05-6.18,16.83-5.76,4.07.61,6.26,9.09,6,10.42-.48,2.21-11.4,4.38-12.48,7.2-.86,2.22.44,12.95,1,17.43a2.32,2.32,0,0,1-1.65,2.54l-5.36,1.56a3,3,0,0,1-3.81-2.27l-5.75-27.45a1.78,1.78,0,0,1,1.08-2Z" transform="translate(-672.21 -388.8)" stroke="#000" stroke-miterlimit="10"/><path d="M680.64,413.85a2.38,2.38,0,0,1,.53-2.46,17.66,17.66,0,0,1,9.71-4.84c3.17-.09,4.58,2.73,8,4.12a2.37,2.37,0,0,1,1.45,1.54c1.43,5.29-2.16,17.49-3,19.27-1.73,3.53-12.22,4.95-14.19,1.2C681.71,430.13,682.58,419.82,680.64,413.85Z" transform="translate(-672.21 -388.8)" fill="#00adee" stroke="#000" stroke-miterlimit="10"/></svg>