<svg id="Layer_5" data-name="Layer 5" xmlns="http://www.w3.org/2000/svg" viewBox="0 0 184.28 116.57"><title>rifle</title><path d="M600,469.59c-.33.67-.1.88.33,1.19s5.07,2.87,5.07,2.87l.2-.36,21.7,12.26.29-.51,4.1,2.31.7,1.18,6.85,3.87a2,2,0,0,0,.75,1.18,1.19,1.19,0,0,0,1.67-.1l4.29,2.42-1,1.79a1,1,0,0,0,.25,1.39,22.45,22.45,0,0,0,2.07,1.27l0,3s.47.73,1.15.47a5.92,5.92,0,0,0,1.22-.64L676,518.11s1,.5,1.35-.12a6.28,6.28,0,0,0,.52-.92l.55.31a15,15,0,0,0,1.92,2.37c.34.08.59-.39.85-.86s.58-1,.58-1l1,.57-.76,1.36s1,3.08.75,3.59-5.64,10.2-11.05,16.32-6,6.5-6.46,6.91-1.3.82-.61,1.88,8.16,8.28,8.16,8.28A1.7,1.7,0,0,0,675,557c1.09-.94,12-13.15,15.1-18.26a30.27,30.27,0,0,0,5.23,4.51,12.29,12.29,0,0,0,5.31,1.61,2.23,2.23,0,0,1,1.56,2.27c-.15,1.75-1.44,11.7-1.44,11.7a1.36,1.36,0,0,1-.86,1.23c-.89.39-.87,1.24-.07,1.8s9.91,1.26,9.91,1.26,1.36-.06,1.39-1.88,0-14.2,0-14.2a3.34,3.34,0,0,1,2.13-2.69c1.87-.56,2.84-.12,3.29-.7s1-1.27,1-1.27l1.11.79s-.67,1.68.14,2.41a1.81,1.81,0,0,0,2.67-.49,10.92,10.92,0,0,0,1.17-2.2l1.69,1,12.92,26.67a1.87,1.87,0,0,0-.2,2.32c.86,1.18,3.27,1.84,3.27,1.84s1.07.68,2.56-1,5.3-8.88,8.34-11.81a27.11,27.11,0,0,0,5.37-6.56c.75-1.45,1-3.25,0-4a1.63,1.63,0,0,0-1.83-.2l-32.85-18.55s1.32-2.1.62-2.71a4.13,4.13,0,0,0-1.42-.8s0-1.06-.53-1.27-6-3.36-6-3.36l3.77-6.69a1,1,0,0,0-.66-1.28c-1-.37-3.29.3-4.58,3.18l-5-1.17a1.39,1.39,0,0,0-1.22.7l-1,1.68-.64-.36.48-.86-1-.53-.48.85-1-.58.47-.85-1-.53-.47.84-1-.58.47-.84-1-.54-.47.84-1-.58.47-.83-1-.54-.46.83-1-.58.46-.83-.95-.53-.46.82-1-.58.45-.82-.95-.53-.46.81-1-.58.45-.81-.95-.53-.45.8-1-.58.45-.8-1-.54-.44.8-1-.58.44-.79-1-.54-.44.79-.75-.43a1.3,1.3,0,0,0-1,.33,1.6,1.6,0,0,0-.42.74c-.35-.48-.57-.33-.57-.33s.84-1.12.18-1.43-3.26-1-3.26-1l.39-.68s.3-.53-.84-1.1-29.16-16-29.16-16l-1.51.33-1.27-11.27a1.62,1.62,0,0,0-1.38-1.61c-1.4-.24-1.95.49-2.61,1.79s-5,8.78-5,8.78l-7-3.95-1.08-.05-4.21-2.38.36-.63-21.73-12.27.21-.39-5.25-3a.64.64,0,0,0-.83.19C601.37,467.14,600.3,468.92,600,469.59Zm133.29,88c.4-.63.78-.19.78-.19s2.46,4.64,2.42,5.6-.88.36-.88.36S732.86,558.25,733.25,557.62Zm-.06-7.41a1.31,1.31,0,0,1,1.27-.1l6.7,6.25s1.09.3.77-.64a25.82,25.82,0,0,0-1.93-3.36l6.34,3.54s1.08.39.29,2-5.63,7.67-5.63,7.67-1.53,1.93-2.25.58S733,551.47,733,551.47,732.6,550.63,733.19,550.21Zm-40-14.69c1-1.33,3.17-1.1,3.17-1.1l2.86,1.52a3.09,3.09,0,0,1,.26,2.51c-.43,1.55-2.06,2.47-2.27,2.76s1.72,0,2.81-1.34a6.11,6.11,0,0,0,1.24-3c.9.73,2,2.79,1.13,4.39s-3.6,3.33-7.08,1S692.2,536.85,693.17,535.52Zm-47.79-51.38a6.93,6.93,0,0,0,1,.55c.6.28.81-.4.81-.4l.8-1.42,1.2.67s1.2,5.64,1,6.55-1.1.42-1.1.42-4.27-2.42-4.9-2.75a.68.68,0,0,1-.3-.94Z" transform="translate(-572.93 -458.22)"/><path d="M635.83,492.28l-9-5.23,1.29-2.12-1.29-.9-1.49,2.19-43.06-25.1s-5.45-3.2-9.33-2.88c1.46,3.23,6.77,6.15,6.77,6.15L623,489.89l-1.34,2.39,1.57,1,1.55-2.46,11.41,6.4s-1,3.32,1.89,1.94l2.14-4.54s.93-3.1-2.44-1.22Z" transform="translate(-572.93 -458.22)"/></svg>