<svg id="Layer_2" data-name="Layer 2" xmlns="http://www.w3.org/2000/svg" viewBox="0 0 74.83 121.71"><title>Untitled-1</title><path d="M728.52,356.62a194.84,194.84,0,0,1-5.91,42.2c-3.86-2.64-31-4-31-4l1-41.22A354.17,354.17,0,0,1,728.52,356.62Z" transform="translate(-654.21 -353.01)" fill="#fff"/><path d="M722.61,398.82A167.74,167.74,0,0,1,716,419.07s-13.46-3.39-24.68-2.38l-.76,45.13A88.74,88.74,0,0,1,678.31,474a140.55,140.55,0,0,1-7.33-16.3l.37-40.7a51.09,51.09,0,0,0-11.8.78c-1.31-6.52-2.41-13.51-3.25-21a89.64,89.64,0,0,1,16.1-2.26V353.78c5.54-.26,12.32-.38,20.21-.15l-1,41.22S718.75,396.18,722.61,398.82Z" transform="translate(-654.21 -353.01)" fill="red"/><path d="M691.34,416.69c11.22-1,24.68,2.38,24.68,2.38a149.64,149.64,0,0,1-25.44,42.75Z" transform="translate(-654.21 -353.01)" fill="#fff"/><path d="M672.4,353.78v40.75a89.64,89.64,0,0,0-16.1,2.26A259.68,259.68,0,0,1,655,355.32,145.26,145.26,0,0,1,672.4,353.78Z" transform="translate(-654.21 -353.01)" fill="#fff"/><path d="M671.35,417l-.37,40.7a237.54,237.54,0,0,1-11.43-39.92A51.09,51.09,0,0,1,671.35,417Z" transform="translate(-654.21 -353.01)" fill="#fff"/><path d="M659.52,417.76h0a51.09,51.09,0,0,1,11.8-.78l-.37,40.7" transform="translate(-654.21 -353.01)" fill="none" stroke="#000" stroke-miterlimit="10"/><path d="M672.4,353.75v40.78a89.64,89.64,0,0,0-16.1,2.26" transform="translate(-654.21 -353.01)" fill="none" stroke="#000" stroke-miterlimit="10"/><path d="M722.61,398.82c-3.86-2.64-31-4-31-4l1-41.22v-.11" transform="translate(-654.21 -353.01)" fill="none" stroke="#000" stroke-miterlimit="10"/><path d="M656.3,396.79A259.68,259.68,0,0,1,655,355.32a145.26,145.26,0,0,1,17.38-1.54c5.54-.26,12.32-.38,20.21-.15a354.17,354.17,0,0,1,35.91,3,194.84,194.84,0,0,1-5.91,42.2A167.74,167.74,0,0,1,716,419.07a149.64,149.64,0,0,1-25.44,42.75A88.74,88.74,0,0,1,678.31,474a140.55,140.55,0,0,1-7.33-16.3,237.54,237.54,0,0,1-11.43-39.92C658.24,411.24,657.14,404.25,656.3,396.79Z" transform="translate(-654.21 -353.01)" fill="none" stroke="#000" stroke-miterlimit="10"/><path d="M690.58,461.85v0l.76-45.13c11.22-1,24.68,2.38,24.68,2.38" transform="translate(-654.21 -353.01)" fill="none" stroke="#000" stroke-miterlimit="10"/></svg>