<?xml version="1.0" standalone="no"?>
<!DOCTYPE svg PUBLIC "-//W3C//DTD SVG 20010904//EN"
 "http://www.w3.org/TR/2001/REC-SVG-20010904/DTD/svg10.dtd">
<svg version="1.0" xmlns="http://www.w3.org/2000/svg"
 width="784.000000pt" height="912.000000pt" viewBox="0 0 784.000000 912.000000"
 preserveAspectRatio="xMidYMid meet">

<g transform="translate(0.000000,912.000000) scale(0.100000,-0.100000)"
fill="#000000" stroke="none">
<path d="M533 5978 c3 -2436 4 -2662 20 -2763 40 -258 74 -409 138 -604 147
-447 378 -823 708 -1152 419 -418 946 -707 1566 -859 270 -66 484 -97 768
-109 434 -19 862 30 1265 146 550 157 1059 450 1432 823 508 509 802 1176 860
1955 6 92 10 1016 10 2678 l0 2537 -3385 0 -3385 0 3 -2652z m6727 45 c0
-2758 1 -2674 -50 -2963 -141 -785 -549 -1439 -1183 -1893 -723 -519 -1717
-744 -2672 -606 -1074 155 -1944 718 -2414 1563 -206 372 -335 823 -371 1301
-6 92 -10 1008 -10 2653 l0 2512 3350 0 3350 0 0 -2567z"/>
<path d="M613 5948 c3 -2852 -2 -2621 63 -2942 162 -808 636 -1483 1344 -1914
890 -542 2078 -663 3110 -315 471 159 871 399 1209 728 419 407 702 933 815
1514 65 331 60 96 63 2939 l3 2582 -3305 0 -3305 0 3 -2592z m3652 2312 c121
-5 272 -16 335 -25 262 -36 550 -134 860 -291 285 -144 540 -324 809 -571 6
-5 -161 -173 -172 -173 -5 0 -48 33 -95 74 -120 101 -350 278 -448 343 -66 43
-638 333 -658 333 -3 0 -13 -25 -22 -55 -10 -30 -22 -55 -27 -55 -6 0 -51 13
-101 29 -189 60 -525 98 -776 87 -353 -16 -658 -90 -949 -233 -84 -41 -157
-71 -161 -66 -69 76 -190 228 -190 240 0 11 20 23 169 98 177 89 306 136 511
184 167 39 310 61 505 80 126 12 162 12 410 1z m-1849 -627 c27 -31 75 -88
107 -126 l58 -69 -153 -157 c-84 -86 -198 -208 -252 -271 -54 -63 -101 -116
-106 -118 -6 -2 -199 110 -268 156 -26 17 24 90 187 272 88 97 361 370 371
370 4 0 28 -26 56 -57z m2039 -27 c66 -14 158 -38 205 -53 l85 -28 -3 -56 -3
-55 123 -53 c155 -67 304 -146 433 -229 109 -70 389 -278 417 -309 17 -18 15
-22 -55 -97 l-72 -77 -50 42 c-152 127 -385 280 -596 392 -168 89 -376 160
-563 192 -84 14 -106 22 -144 51 -117 89 -277 135 -408 115 -151 -22 -263 -85
-360 -203 -52 -63 -135 -127 -166 -128 -9 0 -208 246 -208 257 0 21 226 132
360 176 218 73 399 97 675 92 177 -3 229 -7 330 -29z m-442 -201 c177 -46 319
-181 377 -358 38 -118 28 -271 -24 -383 l-34 -71 -48 -6 c-27 -3 -58 -8 -69
-12 -17 -5 -24 1 -38 30 -9 20 -17 38 -17 40 0 3 18 16 40 30 53 34 74 75 67
136 -6 53 -35 115 -63 140 -11 9 -38 26 -61 39 -33 18 -48 37 -73 86 -59 120
-164 177 -287 156 -77 -13 -130 -48 -181 -122 -46 -65 -74 -154 -60 -190 5
-13 18 -79 29 -145 26 -162 26 -161 54 -189 28 -28 78 -41 128 -33 23 3 44 -3
75 -20 23 -14 42 -28 42 -33 0 -4 -18 -15 -40 -24 -22 -9 -58 -32 -81 -53
l-41 -37 -64 33 c-250 130 -350 450 -221 707 114 226 356 340 590 279z m-2573
-73 c156 -54 150 -51 150 -77 0 -13 4 -26 10 -30 6 -3 5 -15 -2 -30 -9 -19
-18 -24 -42 -23 -17 1 -36 0 -41 -3 -6 -2 -60 47 -120 110 -61 63 -101 109
-90 103 12 -6 72 -28 135 -50z m268 -128 c27 -19 28 -39 2 -81 -26 -43 -75
-47 -90 -7 -15 39 -12 53 16 79 31 29 42 30 72 9z m1132 -71 c12 -16 40 -48
64 -73 23 -25 58 -66 79 -91 l36 -45 -49 -38 c-63 -48 -175 -167 -252 -268
-32 -43 -62 -78 -66 -78 -4 0 -56 29 -115 65 -60 36 -111 65 -115 65 -4 0 -20
10 -35 23 l-28 22 89 100 c104 117 340 345 358 345 7 0 22 -12 34 -27z m-1061
-2 c12 -8 13 -14 3 -35 -13 -29 -24 -32 -41 -12 -9 11 -9 19 1 35 14 24 17 24
37 12z m2129 -137 c14 -4 32 -25 48 -55 13 -27 28 -49 33 -49 6 0 13 -10 17
-22 4 -13 14 -28 23 -35 13 -9 16 -31 16 -105 0 -87 -2 -98 -28 -137 -67 -101
-163 -80 -296 65 -58 63 -65 99 -21 99 18 0 25 5 24 18 -3 37 13 14 32 -45 12
-38 26 -64 36 -66 20 -4 87 39 88 56 0 16 -37 7 -62 -16 -20 -17 -17 -21 -42
68 -9 30 -20 61 -25 69 -13 20 -77 18 -99 -2 -25 -23 -29 -22 -47 13 -34 65
-22 76 120 110 50 12 94 26 100 31 10 10 49 12 83 3z m-198 -174 c-8 -5 -22
-10 -30 -10 -13 0 -13 1 0 10 8 5 22 10 30 10 13 0 13 -1 0 -10z m375 -29 c3
-5 1 -12 -5 -16 -5 -3 -10 1 -10 9 0 18 6 21 15 7z m45 -144 c23 -54 41 -99
39 -101 -2 -1 -37 -28 -77 -60 -109 -86 -150 -92 -166 -24 -6 24 -2 29 37 46
24 11 54 34 67 51 27 39 50 111 50 159 0 20 2 33 4 31 2 -2 22 -48 46 -102z
m453 -75 c13 -6 5 -12 -32 -25 -65 -23 -175 -97 -179 -121 -3 -15 3 -13 41 13
25 17 48 31 52 31 3 0 18 9 33 20 36 27 123 50 188 50 102 0 176 -43 247 -144
93 -132 154 -268 171 -387 6 -37 3 -50 -14 -72 -12 -15 -25 -25 -29 -22 -5 2
-11 32 -14 66 -5 41 -20 87 -47 142 -43 89 -77 131 -143 175 -61 41 -65 43
-71 33 -4 -5 18 -26 47 -47 36 -25 69 -62 102 -112 58 -88 80 -151 90 -249 8
-86 18 -90 66 -33 19 22 59 69 89 104 70 80 97 114 204 256 145 191 165 207
265 217 l56 6 -50 -42 c-60 -51 -104 -101 -105 -118 0 -23 14 -13 85 57 101
101 191 137 265 107 l29 -13 -55 -28 c-30 -16 -54 -35 -54 -42 0 -20 10 -18
74 17 80 43 156 45 241 4 l60 -29 -80 -6 c-44 -4 -96 -15 -115 -24 -61 -31
-160 -101 -160 -113 0 -7 3 -13 6 -13 3 0 49 26 102 58 l96 57 88 0 c100 0
102 -2 140 -95 41 -103 27 -162 -70 -293 -81 -109 -144 -223 -149 -271 -5 -40
-3 -43 26 -56 36 -14 37 -18 14 -36 -22 -17 -95 -18 -111 -2 -16 16 -15 76 2
124 12 35 70 131 86 144 27 21 134 194 146 238 36 122 -26 219 -123 193 -48
-13 -39 -31 15 -31 43 0 54 -4 72 -27 18 -23 21 -37 17 -80 -7 -64 -36 -119
-128 -243 -91 -122 -120 -179 -127 -252 -6 -66 -15 -71 -61 -32 -22 18 -31 35
-31 55 0 43 33 122 74 178 25 33 33 52 25 57 -26 15 -104 -116 -122 -206 l-13
-60 -27 26 c-42 39 -35 85 29 181 33 50 42 73 27 73 -25 0 -113 -152 -113
-195 0 -17 -2 -17 -10 -5 -5 8 -10 36 -10 61 0 49 21 97 92 207 49 76 56 133
20 162 -13 11 -22 22 -22 27 1 4 -3 9 -7 10 -18 6 -174 -228 -306 -457 -71
-124 -99 -151 -183 -176 -50 -15 -194 -20 -194 -6 0 4 19 13 43 19 52 14 111
53 115 76 3 14 -10 10 -63 -19 -55 -31 -80 -38 -139 -41 -76 -5 -139 9 -101
22 11 4 57 25 102 47 103 50 249 178 204 178 -6 0 -23 -12 -38 -26 -60 -57
-145 -113 -217 -143 -112 -46 -184 -40 -219 19 -23 38 -21 44 5 26 28 -20 51
-20 90 0 35 18 128 102 128 115 0 16 -23 9 -47 -13 l-23 -21 0 39 c-1 107 -60
272 -119 328 -42 40 -42 11 -1 -45 39 -55 66 -129 81 -226 15 -99 9 -124 -35
-148 -33 -18 -36 -18 -54 -1 -17 14 -20 34 -24 124 -4 121 -17 156 -77 210
-41 36 -82 47 -151 39 l-48 -6 -12 45 c-16 56 -60 118 -103 144 -33 21 -139
28 -164 12 -7 -4 -50 -2 -95 4 -46 7 -155 18 -243 25 -88 7 -161 13 -163 15
-2 1 1 11 7 22 14 27 63 61 102 72 28 8 31 7 40 -20 13 -37 58 -54 108 -40 20
5 72 39 116 75 94 77 129 95 185 95 l42 0 -60 -44 c-33 -24 -74 -52 -92 -61
-23 -12 -29 -20 -22 -27 13 -13 77 18 136 66 75 59 135 85 201 85 33 0 68 -4
78 -7z m-1820 -37 c26 -18 37 -33 37 -50 0 -31 -1 -31 -61 2 -50 27 -58 40
-37 61 16 16 18 16 61 -13z m133 -24 c-13 -5 -25 -28 -37 -70 -21 -74 -3 -81
20 -8 13 42 17 47 45 47 26 0 28 -2 13 -12 -18 -14 -37 -59 -37 -89 0 -33 16
-21 29 21 9 32 18 41 44 48 18 5 39 6 47 3 9 -3 3 -8 -16 -13 -25 -6 -35 -18
-52 -58 -13 -31 -17 -52 -11 -56 13 -7 12 -8 38 44 18 35 26 42 51 42 16 0 31
-4 34 -9 3 -4 -5 -6 -18 -4 -29 6 -56 -20 -56 -55 0 -33 7 -42 43 -65 40 -26
54 -61 37 -93 -13 -24 -12 -27 25 -60 l40 -35 -29 6 c-17 3 -47 20 -67 36 -21
16 -62 41 -93 55 l-56 26 20 25 c11 14 20 35 20 46 0 17 -5 19 -37 14 -37 -6
-39 -5 -64 41 -25 45 -25 49 -12 102 20 82 19 80 60 79 28 0 33 -2 19 -8z
m135 -178 c-10 -17 -10 -16 -11 3 0 23 13 41 18 25 2 -6 -1 -18 -7 -28z m111
-29 c34 -20 69 -40 76 -46 14 -12 16 -58 2 -58 -12 0 -158 89 -166 101 -5 8
12 39 21 39 2 0 32 -16 67 -36z m335 -181 c-4 -108 -7 -231 -7 -273 l0 -76
-92 -17 c-51 -9 -94 -14 -96 -12 -7 7 -21 195 -28 372 l-7 182 24 5 c27 6 88
12 163 14 l49 2 -6 -197z m651 165 c93 -15 135 -25 139 -35 9 -23 -13 -191
-49 -370 -36 -182 -27 -170 -124 -152 -32 6 -115 16 -184 23 l-125 11 0 88 c0
48 2 173 3 278 l2 192 103 -7 c56 -4 162 -16 235 -28z m-1871 8 c2 -2 -18 -50
-45 -107 -27 -57 -59 -126 -71 -152 l-20 -48 -26 18 c-34 24 -29 60 25 172 62
128 66 134 103 127 17 -3 32 -8 34 -10z m2106 -10 c21 -8 48 -22 59 -33 35
-31 68 -113 68 -170 0 -48 -2 -53 -22 -53 -13 0 -62 -9 -110 -19 -103 -21 -95
-35 -72 125 8 60 13 121 10 137 -6 32 7 34 67 13z m-1143 -252 c5 -5 12 -48
15 -95 l7 -84 -41 67 c-23 37 -53 76 -67 87 l-26 21 23 24 c23 24 24 24 52 8
16 -9 33 -22 37 -28z m-1304 -15 c36 -9 44 -15 38 -28 -3 -9 -8 -23 -11 -32
-5 -16 -40 -18 -107 -4 -10 2 -52 -3 -93 -11 -106 -20 -105 -20 -101 24 3 35
6 38 48 49 59 15 169 16 226 2z m2614 -29 c0 -27 -22 -34 -157 -52 -107 -14
-113 -14 -113 3 0 13 12 21 38 28 67 18 155 34 215 40 11 0 17 -6 17 -19z
m-2445 -15 c45 -44 23 -107 -41 -120 -44 -9 -76 19 -77 69 -2 69 69 100 118
51z m2405 -58 c0 -2 7 -54 15 -117 8 -62 14 -115 12 -116 -2 -2 -48 -10 -103
-19 -54 -8 -124 -22 -154 -30 -30 -8 -60 -15 -66 -15 -8 0 1 50 23 139 l35
139 56 10 c55 9 182 15 182 9z m-2600 -56 c0 -4 -5 -22 -11 -39 l-11 -31 -24
28 c-30 35 -30 39 -1 44 39 7 47 7 47 -2z m143 -41 c5 -4 -6 -40 -23 -80 -17
-39 -47 -115 -66 -168 -56 -157 -54 -153 -81 -150 -13 2 -24 8 -24 13 0 6 30
99 67 207 66 197 66 198 93 192 14 -4 30 -10 34 -14z m-204 -34 c0 -14 -2 -16
-6 -6 -3 8 -10 21 -16 28 -7 9 -6 11 7 6 9 -3 16 -16 15 -28z m-49 -40 c0 -3
-4 -8 -10 -11 -5 -3 -10 -1 -10 4 0 6 5 11 10 11 6 0 10 -2 10 -4z m2761 -106
c32 -17 22 -30 -23 -30 -66 0 -309 -43 -306 -55 2 -5 34 -68 71 -138 58 -108
67 -130 56 -143 -12 -14 -14 -14 -27 3 -45 58 -139 302 -121 313 6 4 45 14 87
23 180 38 231 43 263 27z m-1269 -45 c7 -32 4 -33 -100 -57 -402 -88 -815
-163 -1077 -193 -166 -19 -165 -19 -165 5 0 25 -14 22 220 54 221 30 687 113
711 126 9 5 59 16 111 25 52 9 133 26 179 39 110 31 116 31 121 1z m1261 -28
c12 -33 18 -125 9 -131 -6 -4 -52 7 -101 23 -106 34 -119 23 -43 -32 26 -20
56 -44 66 -55 18 -20 17 -21 -23 -41 -22 -12 -47 -21 -55 -21 -16 0 -141 218
-131 228 11 11 166 40 221 41 35 1 54 -3 57 -12z m-294 -205 l31 -62 -27 1
c-46 1 -165 24 -158 30 3 4 19 46 36 95 16 49 32 96 35 104 4 9 15 -8 28 -45
13 -33 37 -88 55 -123z m-220 47 c30 -5 56 -11 58 -13 2 -2 -4 -23 -15 -47
-10 -24 -30 -69 -42 -99 -42 -97 -164 -294 -233 -373 l-32 -37 2 142 c2 79 6
211 9 293 l6 151 96 -4 c54 -2 121 -7 151 -13z m497 0 c52 -13 58 -20 40 -45
-13 -17 -16 -16 -65 21 -53 41 -62 51 -35 41 9 -4 36 -11 60 -17z m211 -66
c82 -47 182 -107 223 -134 41 -26 168 -104 281 -173 113 -69 213 -134 223
-145 20 -22 15 -51 -7 -51 -15 0 -292 164 -557 329 -91 57 -195 122 -232 145
-54 33 -67 46 -68 67 0 14 -5 30 -12 37 -25 25 6 10 149 -75z m-1268 -95 c0
-95 -4 -193 -7 -218 l-7 -45 -42 135 c-52 167 -77 271 -66 280 11 11 41 17 86
19 l37 1 -1 -172z m-1677 150 c-7 -7 -12 -20 -12 -29 0 -19 -11 -23 -75 -34
-22 -3 -48 -8 -57 -11 -14 -4 -18 1 -18 24 0 22 7 32 33 45 39 19 148 24 129
5z m118 -28 c15 -29 -3 -57 -41 -62 -36 -6 -59 13 -59 46 0 31 7 36 51 36 28
0 41 -5 49 -20z m2302 -89 c50 -5 74 -13 92 -30 20 -18 28 -21 44 -12 12 6 25
11 30 11 24 0 112 -281 112 -358 0 -45 -3 -47 -90 -61 -45 -7 -50 -6 -50 11 0
14 5 17 23 13 22 -5 77 33 77 53 0 5 -19 22 -41 38 -42 29 -104 38 -140 21
-13 -7 -18 -1 -23 27 -4 19 -24 61 -45 93 -31 46 -37 61 -30 80 20 52 -40 100
-91 73 -28 -15 -33 -9 -19 24 14 29 30 31 151 17z m-2329 -28 c-8 -52 -26
-113 -33 -113 -4 0 -3 21 2 48 6 26 12 57 14 70 6 32 22 27 17 -5z m2260 -55
c15 -23 -6 -46 -50 -54 -25 -5 -38 -3 -44 7 -15 24 -10 38 19 53 33 19 61 17
75 -6z m-2425 -6 c2 -7 -2 -10 -12 -6 -12 4 -16 0 -16 -15 0 -12 -4 -21 -10
-21 -11 0 -14 43 -3 54 10 10 36 3 41 -12z m2330 -72 c15 0 32 -33 32 -62 1
-20 23 -90 44 -140 5 -11 2 -18 -12 -23 -12 -3 -28 -25 -39 -50 -18 -44 -19
-45 -65 -45 -43 0 -196 25 -205 33 -2 2 19 33 45 68 57 75 127 179 149 222 14
28 17 29 28 14 7 -9 17 -17 23 -17z m130 -48 c42 -62 58 -117 43 -149 -11 -23
-12 -23 -42 -8 -49 26 -101 175 -68 196 24 15 33 10 67 -39z m-1819 -36 c213
-127 558 -284 735 -334 141 -41 139 -38 149 -129 l6 -51 -72 19 c-216 59 -622
236 -829 360 -110 66 -117 72 -106 93 16 31 49 76 55 76 3 0 31 -15 62 -34z
m1085 -83 c23 -66 20 -82 -19 -140 -38 -57 -60 -129 -52 -170 10 -52 -3 -83
-44 -103 -21 -11 -40 -20 -43 -20 -12 0 -26 102 -21 155 6 67 18 111 47 170
29 59 101 164 109 159 4 -2 14 -25 23 -51z m1204 41 c13 -9 22 -26 22 -41 0
-24 -2 -25 -41 -19 l-41 7 9 -33 c14 -58 9 -258 -9 -325 -20 -72 -70 -203 -78
-203 -3 0 -17 31 -32 68 l-26 69 19 56 c18 53 23 83 50 288 13 101 25 131 59
140 38 11 44 10 68 -7z m-267 -62 c15 -13 20 -25 15 -37 -5 -14 -9 -16 -18 -7
-7 7 -34 12 -60 12 -43 0 -51 -3 -65 -28 -14 -25 -21 -28 -67 -27 l-51 0 -16
-49 c-8 -28 -21 -52 -29 -54 -20 -7 -6 75 18 107 17 22 27 26 71 26 45 0 53 3
64 25 24 48 96 65 138 32z m-3261 -332 l0 -320 114 0 115 0 -10 -32 c-5 -18
-9 -52 -9 -75 0 -23 -7 -69 -16 -104 -16 -64 -9 -109 17 -109 31 0 49 -33 49
-91 0 -52 3 -59 34 -87 39 -34 56 -62 56 -92 0 -17 118 -158 142 -168 12 -6
30 39 63 158 18 63 35 125 39 137 6 18 -2 28 -47 62 -36 28 -57 52 -63 74 -8
25 -16 33 -37 35 -35 4 -34 21 4 54 27 24 29 31 24 65 -4 21 -13 55 -21 76 -8
20 -14 51 -14 67 l0 30 85 0 85 0 0 145 c0 163 -3 158 77 126 26 -10 93 -26
148 -35 163 -28 164 -32 9 -47 -62 -5 -118 -16 -131 -25 -60 -39 -73 -146 -34
-291 11 -45 21 -108 21 -140 -1 -98 -25 -267 -42 -293 -36 -58 -30 -172 10
-178 30 -5 48 -36 56 -96 7 -55 20 -76 47 -76 13 0 28 -17 46 -52 20 -41 40
-62 90 -95 55 -38 81 -50 84 -40 5 15 23 310 19 317 -3 5 -24 12 -47 16 -40 6
-103 49 -103 71 0 5 11 19 25 31 29 25 30 35 10 92 -17 48 -19 117 -5 175 6
22 14 80 19 128 8 70 15 94 35 117 13 17 27 39 31 49 9 30 25 31 157 16 111
-14 130 -14 200 1 76 16 77 16 124 -7 41 -19 64 -23 154 -23 58 0 114 2 126 5
15 3 41 -15 96 -67 l75 -71 -37 -62 c-21 -34 -48 -73 -61 -87 -19 -20 -24 -37
-24 -74 0 -42 -5 -54 -33 -83 -31 -31 -40 -35 -105 -40 -40 -2 -105 -12 -144
-22 -58 -13 -73 -20 -73 -35 0 -10 8 -21 18 -24 10 -4 40 -20 66 -37 47 -29
48 -30 30 -50 -13 -15 -15 -22 -6 -31 7 -7 94 -47 194 -90 l183 -77 3 27 c6
52 8 54 48 37 53 -22 80 -19 104 12 17 22 21 38 18 80 -3 50 -1 56 47 115 27
35 88 98 136 141 74 65 89 75 101 64 7 -8 25 -20 38 -27 35 -19 152 -39 170
-30 8 4 67 10 130 13 137 7 289 35 384 71 l68 26 -6 -23 c-14 -46 -19 -90 -10
-86 5 2 44 21 86 42 74 36 78 37 111 23 39 -16 78 -63 103 -121 44 -105 139
-221 231 -280 100 -65 150 -86 323 -137 64 -19 119 -41 140 -58 19 -15 54 -33
77 -39 33 -9 49 -23 87 -74 26 -35 66 -78 91 -95 35 -24 52 -48 84 -114 48
-100 76 -211 69 -273 -5 -38 -14 -53 -62 -100 -59 -59 -74 -91 -57 -123 15
-28 15 -30 -19 -47 -23 -12 -30 -22 -30 -44 0 -16 -9 -36 -21 -47 -12 -10 -33
-41 -46 -69 -14 -27 -34 -62 -44 -77 -25 -35 -24 -51 2 -43 11 4 81 10 155 14
95 6 139 12 148 22 7 8 21 44 30 82 9 37 25 76 37 88 15 15 18 27 13 54 -6 31
-4 35 16 35 33 0 80 32 87 59 3 14 -1 47 -11 74 -16 45 -16 50 -1 73 9 14 23
28 31 31 33 13 33 46 -2 113 -18 36 -58 137 -88 224 -45 127 -56 172 -56 222
0 66 -24 114 -58 114 -9 0 -37 14 -62 30 l-45 30 36 0 c59 0 104 -25 132 -72
14 -24 43 -56 66 -73 35 -26 50 -52 115 -195 42 -91 80 -189 87 -218 13 -65 1
-124 -39 -184 -21 -33 -27 -55 -30 -114 -4 -71 -5 -74 -38 -93 -39 -24 -56
-57 -42 -84 7 -13 5 -23 -5 -35 -8 -9 -32 -51 -52 -92 -20 -41 -44 -83 -53
-93 -23 -26 -8 -32 46 -19 26 6 100 14 165 18 108 6 118 8 122 28 43 186 43
185 29 205 -24 34 -2 69 50 82 25 6 53 20 62 30 16 18 16 22 1 55 -23 47 -22
58 13 97 43 50 42 110 -6 197 -112 208 -238 545 -251 670 -3 30 -10 63 -14 72
-10 19 -107 71 -169 89 -34 10 -48 23 -77 68 -46 74 -76 105 -145 152 -72 49
-79 76 -48 175 16 50 22 98 23 176 2 104 3 108 24 108 22 0 23 2 25 162 l3
162 39 -35 c61 -53 76 -99 85 -257 7 -130 9 -140 40 -194 18 -32 37 -61 42
-64 5 -3 9 14 10 38 0 24 9 66 20 93 l19 50 -8 -60 c-12 -99 -6 -177 15 -226
18 -41 117 -147 131 -141 3 1 5 44 4 95 -1 50 2 110 7 132 7 31 9 12 10 -85 1
-149 18 -195 100 -274 56 -55 72 -55 47 -1 -17 34 -36 215 -23 215 3 0 13 -26
22 -57 23 -80 56 -139 111 -201 50 -57 79 -59 50 -4 -19 37 -38 156 -34 209 3
38 3 37 26 -31 45 -134 115 -236 178 -256 36 -12 128 -9 142 4 4 5 -9 22 -30
39 -54 48 -102 160 -162 379 -15 54 -29 106 -33 115 -3 10 10 -5 28 -34 37
-57 102 -113 106 -91 2 7 -21 82 -51 166 l-53 152 128 0 129 0 0 320 0 320
206 0 205 0 -4 -752 c-4 -798 -5 -816 -57 -1093 -84 -448 -289 -902 -554
-1230 l-24 -30 -44 33 c-131 98 -220 134 -353 140 -166 7 -263 -29 -574 -212
-312 -182 -494 -228 -706 -177 -135 33 -358 137 -423 198 -95 89 -180 140
-292 175 -64 20 -95 23 -215 22 -121 -1 -152 -4 -228 -27 -142 -44 -205 -80
-377 -222 -66 -54 -191 -117 -280 -142 -89 -24 -263 -24 -345 1 -82 24 -179
77 -245 132 -80 66 -215 156 -298 198 -222 112 -430 90 -660 -70 -35 -24 -67
-44 -72 -44 -13 0 -136 165 -204 274 -172 274 -312 633 -375 961 -54 283 -54
289 -58 1103 l-4 762 195 0 196 0 0 -320z m1088 286 c-9 -27 -17 -35 -42 -40
-46 -8 -403 -17 -421 -10 -15 6 -22 64 -8 77 3 4 113 7 244 7 l237 0 -10 -34z
m2502 19 c-18 -17 -80 -32 -80 -18 0 9 50 29 80 32 12 1 12 -1 0 -14z m197
-11 c51 -32 129 -223 148 -361 8 -60 14 -63 100 -39 62 17 217 76 229 87 20
18 44 8 69 -30 20 -30 23 -42 14 -49 -28 -22 -144 -75 -227 -103 -138 -46
-601 -149 -670 -149 -9 0 -22 17 -32 44 -23 62 -11 75 81 87 90 11 280 47 293
55 14 9 0 141 -23 226 -24 87 -62 163 -101 205 l-31 32 24 5 c13 3 33 7 44 9
25 6 54 -1 82 -19z m1203 -50 c0 -57 -3 -75 -12 -71 -125 55 -229 87 -283 87
-28 0 -146 -23 -186 -35 -17 -6 -19 -1 -19 44 l0 51 250 0 250 0 0 -76z
m-1783 11 c2 -6 -10 -19 -27 -28 -32 -19 -39 -11 -24 28 7 17 45 17 51 0z
m-102 -49 c19 -13 17 -15 -18 -21 -42 -8 -52 -3 -44 20 8 19 37 19 62 1z
m-285 -25 l115 -16 3 -33 c2 -17 7 -32 12 -32 21 0 70 37 70 52 0 15 4 16 24
7 28 -13 39 -44 26 -70 -14 -25 -181 -163 -237 -195 -177 -100 -212 -121 -250
-146 l-42 -28 -60 77 c-34 43 -77 108 -96 144 l-35 66 32 41 c18 23 35 42 38
42 3 0 12 -15 20 -32 8 -18 20 -33 26 -35 6 -2 51 39 100 91 77 81 92 93 114
88 14 -3 77 -13 140 -21z m464 -208 c47 -122 86 -224 86 -228 0 -3 35 -92 77
-198 69 -174 77 -200 81 -277 l5 -85 -25 30 c-74 90 -118 174 -208 401 -70
175 -200 521 -200 532 0 8 91 54 97 49 1 -1 40 -102 87 -224z m-927 -40 c20
-32 65 -97 101 -146 35 -48 62 -92 60 -98 -2 -7 -32 14 -65 45 -73 67 -179
217 -170 240 12 30 37 16 74 -41z m-34 -88 c26 -39 73 -93 104 -122 31 -29 55
-54 52 -56 -4 -4 -284 39 -306 47 -7 3 -13 20 -13 37 0 32 0 32 43 25 96 -16
137 -18 137 -8 0 5 -34 35 -76 65 l-76 55 28 16 c16 8 36 14 44 13 8 -1 36
-34 63 -72z m-113 -5 c56 -42 51 -48 -24 -30 -41 9 -56 23 -56 53 0 27 22 21
80 -23z m-76 -56 c11 -29 6 -54 -15 -84 -16 -21 -20 -37 -16 -59 5 -24 -9 -63
-74 -198 -44 -92 -81 -169 -83 -171 -3 -2 -54 18 -84 34 -1 1 22 44 51 95 30
52 87 162 128 246 41 84 77 152 80 153 4 0 10 -7 13 -16z m1099 -67 c9 -23 17
-47 17 -53 0 -16 -89 -60 -145 -72 -27 -6 -111 -14 -185 -17 -151 -7 -234 5
-335 49 l-56 26 26 34 c15 20 35 38 45 41 11 3 50 -4 87 -16 144 -46 388 -33
472 25 20 14 41 25 46 25 6 1 18 -18 28 -42z m-900 -59 c75 -12 137 -26 137
-31 0 -5 -12 -6 -27 -2 -16 4 -91 9 -168 11 -130 4 -140 6 -143 24 -4 27 25
26 201 -2z m104 -61 c8 -9 -46 -263 -66 -309 -13 -30 -47 -69 -106 -123 -49
-44 -114 -110 -146 -147 -41 -48 -59 -62 -63 -52 -8 21 11 54 30 54 11 0 14 8
12 27 -4 35 -59 73 -105 73 -30 0 -34 -3 -28 -20 7 -23 -10 -50 -31 -50 -20 0
-19 84 1 100 8 7 15 27 15 44 0 18 4 36 10 42 5 5 39 74 74 152 35 78 68 148
74 155 5 6 13 22 16 34 4 12 17 24 29 27 26 6 277 -1 284 -7z m311 -44 c60 -7
63 -13 36 -104 -35 -116 -86 -189 -177 -251 l-60 -41 -53 12 c-30 7 -56 16
-59 21 -3 4 8 16 24 27 66 41 140 163 186 301 13 42 21 52 34 47 9 -4 40 -9
69 -12z m-835 -314 c37 -51 -13 -104 -71 -77 -31 15 -42 68 -21 94 19 23 69
13 92 -17z m-50 -109 c25 0 25 -1 32 -122 4 -68 5 -151 3 -184 l-3 -62 -160
64 c-88 35 -163 65 -167 66 -5 2 47 60 115 129 97 101 125 125 139 118 9 -5
28 -9 41 -9z m195 -63 c10 -8 8 -14 -8 -32 -25 -27 -26 -70 0 -128 15 -34 18
-51 11 -71 -16 -41 -40 -47 -91 -23 l-45 22 -3 98 c-2 69 1 97 8 92 15 -9 57
20 65 45 5 16 12 19 28 14 12 -3 28 -11 35 -17z m-420 -54 l-57 -57 -38 26
c-21 14 -47 30 -58 36 -19 10 -19 11 5 16 14 3 52 12 85 20 33 8 73 14 90 15
30 1 30 1 -27 -56z"/>
<path d="M3801 6904 c-33 -27 -42 -64 -15 -64 8 0 12 -5 9 -11 -5 -7 5 -8 32
-3 45 8 95 51 74 63 -10 6 -8 10 5 15 16 6 16 8 4 16 -28 18 -78 11 -109 -16z
m49 -11 c-8 -3 -23 -12 -32 -21 -22 -19 -24 -9 -2 12 8 9 23 16 32 15 14 0 14
-2 2 -6z"/>
<path d="M3866 6657 c-43 -24 -58 -47 -31 -47 9 0 14 -4 10 -9 -10 -17 15 -23
48 -12 46 15 59 41 37 69 -22 27 -16 27 -64 -1z m24 -32 c-7 -8 -17 -15 -23
-15 -6 0 -2 7 9 15 25 19 30 19 14 0z"/>
<path d="M2841 3614 c-90 -93 -106 -124 -64 -124 10 0 52 -16 92 -35 41 -20
78 -32 82 -28 8 9 -3 269 -12 278 -3 3 -47 -38 -98 -91z m76 -150 c-4 -4 -117
43 -126 52 -2 2 25 34 60 72 l64 69 3 -95 c1 -52 1 -96 -1 -98z"/>
</g>
</svg>
